<?xml version="1.0" encoding="UTF-8"?>
<svg xmlns="http://www.w3.org/2000/svg" xmlns:xlink="http://www.w3.org/1999/xlink" width="499pt" height="281pt" viewBox="0 0 499 281" version="1.1">
<g id="surface1">
<path style=" stroke:none;fill-rule:nonzero;fill:rgb(100%,100%,100%);fill-opacity:1;" d="M 0 0 L 499 0 L 499 280.75 L 0 280.75 Z M 0 0 "/>
<path style=" stroke:none;fill-rule:nonzero;fill:rgb(82.745098%,78.431373%,74.509804%);fill-opacity:1;" d="M 97.894531 105.28125 L 97.894531 126.945312 C 98.566406 125.339844 98.328125 123.472656 98.328125 121.746094 L 98.328125 111.78125 C 98.328125 109.738281 97.917969 107.398438 99.191406 105.714844 C 98.652344 105.417969 98.523438 105.390625 97.894531 105.28125 Z M 97.894531 105.28125 "/>
<path style=" stroke:none;fill-rule:nonzero;fill:rgb(84.705882%,89.019608%,92.941176%);fill-opacity:1;" d="M 99.191406 105.28125 L 99.191406 126.945312 C 99.910156 125.230469 99.628906 123.15625 99.628906 121.3125 L 99.628906 111.347656 C 99.628906 109.378906 99.960938 107.105469 99.191406 105.28125 Z M 99.191406 105.28125 "/>
<path style=" stroke:none;fill-rule:nonzero;fill:rgb(82.352941%,78.823529%,72.941176%);fill-opacity:1;" d="M 123.019531 105.28125 L 123.019531 126.945312 C 123.691406 125.339844 123.453125 123.472656 123.453125 121.746094 L 123.453125 111.78125 C 123.453125 109.738281 123.042969 107.398438 124.316406 105.714844 C 123.773438 105.417969 123.644531 105.390625 123.019531 105.28125 Z M 123.019531 105.28125 "/>
<path style=" stroke:none;fill-rule:nonzero;fill:rgb(84.705882%,88.627451%,93.333333%);fill-opacity:1;" d="M 124.316406 105.28125 L 124.316406 115.246094 C 124.316406 116.683594 124.054688 118.160156 125.183594 119.144531 C 124.144531 114.785156 126.027344 109.359375 124.316406 105.28125 Z M 124.316406 105.28125 "/>
<path style=" stroke:none;fill-rule:nonzero;fill:rgb(83.137255%,78.431373%,74.509804%);fill-opacity:1;" d="M 191.890625 105.28125 L 191.890625 126.945312 C 192.5625 125.339844 192.320312 123.472656 192.320312 121.746094 L 192.320312 111.78125 C 192.320312 109.738281 191.914062 107.398438 193.191406 105.714844 C 192.648438 105.417969 192.519531 105.390625 191.890625 105.28125 Z M 191.890625 105.28125 "/>
<path style=" stroke:none;fill-rule:nonzero;fill:rgb(84.705882%,89.019608%,93.72549%);fill-opacity:1;" d="M 193.191406 105.28125 L 193.191406 126.945312 C 193.910156 125.230469 193.625 123.15625 193.625 121.3125 L 193.625 111.347656 C 193.625 109.378906 193.953125 107.105469 193.191406 105.28125 Z M 193.191406 105.28125 "/>
<path style=" stroke:none;fill-rule:nonzero;fill:rgb(82.745098%,78.431373%,74.509804%);fill-opacity:1;" d="M 246.898438 105.28125 L 246.898438 126.945312 C 247.574219 125.339844 247.332031 123.472656 247.332031 121.746094 L 247.332031 111.78125 C 247.332031 109.738281 246.925781 107.398438 248.203125 105.714844 C 247.660156 105.417969 247.527344 105.390625 246.898438 105.28125 Z M 246.898438 105.28125 "/>
<path style=" stroke:none;fill-rule:nonzero;fill:rgb(85.882353%,89.019608%,92.941176%);fill-opacity:1;" d="M 248.203125 105.28125 L 248.203125 115.246094 C 249.191406 112.886719 249.191406 107.640625 248.203125 105.28125 Z M 248.203125 105.28125 "/>
<path style=" stroke:none;fill-rule:nonzero;fill:rgb(67.843137%,64.705882%,61.960784%);fill-opacity:1;" d="M 98.328125 105.714844 L 98.328125 126.511719 C 99 124.910156 98.757812 123.039062 98.757812 121.3125 L 98.757812 111.347656 C 98.757812 109.503906 99.046875 107.429688 98.328125 105.714844 Z M 98.328125 105.714844 "/>
<path style=" stroke:none;fill-rule:nonzero;fill:rgb(61.176471%,64.705882%,67.45098%);fill-opacity:1;" d="M 98.757812 105.714844 C 98.757812 112.457031 99.890625 120.375 98.328125 126.945312 C 99.675781 125.765625 99.191406 123.429688 99.191406 121.746094 L 99.191406 111.347656 C 99.191406 109.503906 99.480469 107.429688 98.757812 105.714844 Z M 98.757812 105.714844 "/>
<path style=" stroke:none;fill-rule:nonzero;fill:rgb(67.058824%,65.098039%,60.784314%);fill-opacity:1;" d="M 123.453125 105.714844 L 123.453125 126.511719 C 124.125 124.910156 123.882812 123.039062 123.882812 121.3125 L 123.882812 111.347656 C 123.882812 109.503906 124.171875 107.429688 123.453125 105.714844 Z M 123.453125 105.714844 "/>
<path style=" stroke:none;fill-rule:nonzero;fill:rgb(61.960784%,63.529412%,67.843137%);fill-opacity:1;" d="M 123.882812 105.714844 C 123.882812 112.457031 125.011719 120.375 123.453125 126.945312 C 124.824219 125.742188 124.257812 123.453125 124.355469 121.746094 C 124.550781 118.292969 124.316406 114.8125 124.316406 111.347656 C 124.316406 109.503906 124.605469 107.429688 123.882812 105.714844 Z M 123.882812 105.714844 "/>
<path style=" stroke:none;fill-rule:nonzero;fill:rgb(62.745098%,64.705882%,65.882353%);fill-opacity:1;" d="M 192.320312 105.714844 L 192.320312 126.945312 L 193.191406 126.945312 L 193.191406 105.714844 Z M 192.320312 105.714844 "/>
<path style=" stroke:none;fill-rule:nonzero;fill:rgb(67.843137%,64.705882%,61.960784%);fill-opacity:1;" d="M 247.332031 105.714844 L 247.332031 126.945312 C 248.101562 125.121094 247.769531 122.84375 247.769531 120.878906 L 247.769531 110.914062 C 247.769531 109.1875 248.007812 107.316406 247.332031 105.714844 Z M 247.332031 105.714844 "/>
<path style=" stroke:none;fill-rule:nonzero;fill:rgb(64.313725%,64.313725%,64.313725%);fill-opacity:1;" d="M 247.769531 105.714844 L 247.769531 126.945312 C 248.144531 126.054688 248.179688 125.320312 248.203125 124.34375 C 248.984375 125.257812 249.726562 126.183594 250.816406 126.746094 C 259.671875 131.347656 263.792969 112.214844 253.832031 112.226562 C 252.949219 112.226562 252.066406 112.320312 251.25 112.683594 C 250.015625 113.242188 249.117188 114.289062 248.203125 115.246094 C 248.203125 112.339844 248.894531 108.402344 247.769531 105.714844 Z M 247.769531 105.714844 "/>
<path style=" stroke:none;fill-rule:nonzero;fill:rgb(74.117647%,73.333333%,73.72549%);fill-opacity:1;" d="M 87.496094 106.148438 C 88.632812 106.625 89.734375 106.578125 90.960938 106.582031 C 89.832031 106.105469 88.726562 106.152344 87.496094 106.148438 Z M 87.496094 106.148438 "/>
<path style=" stroke:none;fill-rule:nonzero;fill:rgb(66.27451%,66.27451%,67.058824%);fill-opacity:1;" d="M 93.5625 125.210938 C 90.878906 125.574219 88.410156 126.5625 85.765625 125.414062 C 79.511719 122.695312 78.917969 113.542969 84.054688 109.414062 C 87.148438 106.917969 90.042969 107.71875 93.5625 108.3125 C 92.683594 105.179688 85.714844 106.375 83.597656 107.789062 C 79.945312 110.234375 78.453125 117.601562 79.921875 121.746094 C 81.316406 125.667969 85.691406 127.796875 89.664062 127.199219 C 91.324219 126.949219 93.042969 126.984375 93.5625 125.210938 Z M 93.5625 125.210938 "/>
<path style=" stroke:none;fill-rule:nonzero;fill:rgb(65.490196%,64.705882%,67.058824%);fill-opacity:1;" d="M 104.390625 106.582031 C 104.148438 107.359375 104.035156 107.933594 103.960938 108.746094 L 105.691406 108.746094 C 105.613281 107.933594 105.5 107.363281 105.257812 106.582031 Z M 104.390625 106.582031 "/>
<path style=" stroke:none;fill-rule:nonzero;fill:rgb(64.705882%,65.098039%,65.882353%);fill-opacity:1;" d="M 149.871094 106.582031 C 148.246094 113.613281 144.40625 119.992188 142.511719 126.945312 C 145.511719 126.421875 144.632812 122.898438 146.628906 121.140625 C 147.609375 120.277344 149.097656 120.449219 150.308594 120.445312 C 151.503906 120.441406 153.015625 120.226562 154.148438 120.707031 C 156.140625 121.550781 156.90625 125.027344 157.234375 126.945312 L 158.96875 126.945312 C 157.714844 121.640625 155.261719 116.453125 153.359375 111.347656 C 152.601562 109.316406 152.253906 106.992188 149.871094 106.582031 Z M 149.871094 106.582031 "/>
<path style=" stroke:none;fill-rule:nonzero;fill:rgb(80.392157%,78.431373%,76.470588%);fill-opacity:1;" d="M 103.527344 107.015625 L 103.527344 108.3125 C 103.828125 107.640625 103.828125 107.6875 103.527344 107.015625 Z M 103.527344 107.015625 "/>
<path style=" stroke:none;fill-rule:nonzero;fill:rgb(74.509804%,74.509804%,74.509804%);fill-opacity:1;" d="M 90.820312 107.589844 C 90.625 107.785156 91.085938 107.761719 91.109375 107.734375 C 91.300781 107.542969 90.84375 107.566406 90.820312 107.589844 Z M 90.820312 107.589844 "/>
<path style=" stroke:none;fill-rule:nonzero;fill:rgb(67.45098%,65.490196%,66.666667%);fill-opacity:1;" d="M 279.820312 108.3125 L 279.820312 112.644531 L 277.222656 112.644531 L 277.222656 113.515625 L 279.820312 113.515625 L 279.824219 122.175781 C 279.828125 123.558594 279.726562 125.25 280.875 126.25 C 281.867188 127.113281 283.367188 126.941406 284.585938 126.945312 L 284.585938 126.078125 C 278.945312 125.652344 280.6875 117.5625 280.6875 113.515625 L 284.585938 113.515625 L 284.585938 112.644531 L 281.121094 112.644531 L 281.121094 108.3125 Z M 279.820312 108.3125 "/>
<path style=" stroke:none;fill-rule:nonzero;fill:rgb(65.882353%,65.882353%,65.490196%);fill-opacity:1;" d="M 288.484375 108.3125 L 288.484375 112.644531 L 285.882812 112.644531 L 285.882812 113.515625 L 288.484375 113.515625 L 288.484375 122.175781 C 288.492188 123.558594 288.390625 125.25 289.539062 126.25 C 290.53125 127.113281 292.03125 126.941406 293.25 126.945312 L 293.25 126.078125 C 287.609375 125.652344 289.351562 117.5625 289.351562 113.515625 L 293.25 113.515625 L 293.25 112.644531 L 289.78125 112.644531 L 289.78125 108.3125 L 288.484375 108.3125 M 336.996094 108.3125 L 336.996094 112.644531 L 334.398438 112.644531 L 334.398438 113.515625 L 336.996094 113.515625 L 336.996094 122.175781 C 337.003906 123.558594 336.902344 125.25 338.054688 126.25 C 339.042969 127.113281 340.546875 126.941406 341.765625 126.945312 L 341.765625 126.078125 C 337.503906 125.753906 337.863281 122.078125 337.867188 118.710938 C 337.867188 117.335938 337.5625 115.292969 338.617188 114.207031 C 339.414062 113.390625 340.726562 113.527344 341.765625 113.515625 L 341.765625 112.644531 L 338.296875 112.644531 L 338.296875 108.3125 Z M 336.996094 108.3125 "/>
<path style=" stroke:none;fill-rule:nonzero;fill:rgb(65.882353%,65.882353%,66.666667%);fill-opacity:1;" d="M 381.179688 108.3125 L 381.179688 112.644531 L 378.582031 112.644531 L 378.582031 113.515625 L 381.179688 113.515625 L 381.183594 122.175781 C 381.1875 123.558594 381.085938 125.25 382.234375 126.25 C 383.226562 127.113281 384.726562 126.941406 385.945312 126.945312 L 385.945312 126.078125 C 380.304688 125.652344 382.046875 117.5625 382.046875 113.515625 L 385.945312 113.515625 L 385.945312 112.644531 L 382.480469 112.644531 L 382.480469 108.3125 Z M 381.179688 108.3125 "/>
<path style=" stroke:none;fill-rule:nonzero;fill:rgb(67.058824%,65.098039%,67.45098%);fill-opacity:1;" d="M 414.964844 108.3125 L 414.964844 112.644531 L 412.367188 112.644531 L 412.367188 113.515625 L 414.964844 113.515625 L 414.964844 122.175781 C 414.972656 123.558594 414.871094 125.25 416.023438 126.25 C 417.011719 127.113281 418.515625 126.941406 419.734375 126.945312 L 419.734375 126.078125 C 414.09375 125.652344 415.835938 117.5625 415.835938 113.515625 L 419.734375 113.515625 L 419.734375 112.644531 L 416.265625 112.644531 L 416.265625 108.3125 Z M 414.964844 108.3125 "/>
<path style=" stroke:none;fill-rule:nonzero;fill:rgb(100%,100%,100%);fill-opacity:1;" d="M 150.742188 108.746094 C 149.171875 112.101562 148.136719 115.679688 146.84375 119.144531 L 154.640625 119.144531 C 153.554688 115.8125 152.597656 111.699219 150.742188 108.746094 Z M 150.742188 108.746094 "/>
<path style=" stroke:none;fill-rule:nonzero;fill:rgb(66.27451%,63.529412%,59.607843%);fill-opacity:1;" d="M 80.136719 111.78125 C 79.265625 114.351562 79.265625 116.890625 79.265625 119.578125 C 80.011719 117.800781 80.820312 113.558594 80.136719 111.78125 Z M 80.136719 111.78125 "/>
<path style=" stroke:none;fill-rule:nonzero;fill:rgb(94.509804%,94.117647%,92.156863%);fill-opacity:1;" d="M 318.375 111.78125 C 319.023438 112.074219 319.375 112.140625 320.105469 112.210938 C 319.453125 111.917969 319.101562 111.855469 318.375 111.78125 Z M 318.375 111.78125 "/>
<path style=" stroke:none;fill-rule:nonzero;fill:rgb(82.352941%,78.431373%,75.294118%);fill-opacity:1;" d="M 103.960938 112.210938 L 103.960938 126.945312 C 105.714844 122.761719 102.460938 116.339844 105.257812 112.644531 C 104.71875 112.347656 104.585938 112.320312 103.960938 112.210938 Z M 103.960938 112.210938 "/>
<path style=" stroke:none;fill-rule:nonzero;fill:rgb(85.098039%,89.019608%,92.941176%);fill-opacity:1;" d="M 105.257812 112.210938 L 105.257812 126.945312 C 105.832031 125.574219 105.691406 124.09375 105.691406 122.613281 C 105.691406 119.484375 106.472656 115.105469 105.257812 112.210938 Z M 105.257812 112.210938 "/>
<path style=" stroke:none;fill-rule:nonzero;fill:rgb(64.313725%,63.921569%,66.27451%);fill-opacity:1;" d="M 119.554688 125.210938 C 117.480469 125.761719 115.5 126.503906 113.492188 125.273438 C 109 122.515625 109.796875 115.324219 114.785156 113.59375 C 116.363281 113.046875 117.992188 113.625 119.554688 113.949219 C 118.59375 111.214844 114.152344 112.015625 112.207031 113.382812 C 109.269531 115.445312 108.433594 120.296875 109.871094 123.476562 C 111.265625 126.558594 117.996094 129.683594 119.554688 125.210938 Z M 119.554688 125.210938 "/>
<path style=" stroke:none;fill-rule:nonzero;fill:rgb(75.686275%,75.686275%,76.470588%);fill-opacity:1;" d="M 131.25 112.210938 C 132 112.667969 132.082031 112.664062 132.980469 112.644531 C 132.328125 112.351562 131.976562 112.289062 131.25 112.210938 Z M 131.25 112.210938 "/>
<path style=" stroke:none;fill-rule:nonzero;fill:rgb(83.921569%,78.039216%,74.117647%);fill-opacity:1;" d="M 162.003906 112.210938 L 162.003906 126.945312 C 163.757812 122.761719 160.507812 116.339844 163.300781 112.644531 C 162.757812 112.347656 162.628906 112.320312 162.003906 112.210938 Z M 162.003906 112.210938 "/>
<path style=" stroke:none;fill-rule:nonzero;fill:rgb(83.921569%,88.235294%,91.372549%);fill-opacity:1;" d="M 163.300781 112.210938 L 163.300781 114.8125 C 163.710938 113.824219 163.710938 113.203125 163.300781 112.210938 Z M 163.300781 112.210938 "/>
<path style=" stroke:none;fill-rule:nonzero;fill:rgb(65.882353%,65.098039%,65.882353%);fill-opacity:1;" d="M 163.300781 114.8125 L 163.300781 112.644531 L 162.4375 112.644531 L 162.4375 126.945312 L 163.300781 126.945312 C 163.300781 123.660156 162.480469 119.0625 164.207031 116.117188 C 165.203125 114.417969 167.320312 112.765625 169.359375 113.667969 C 173.683594 115.585938 172.398438 123.179688 172.398438 126.945312 L 173.261719 126.945312 C 173.261719 123.378906 174.078125 118.644531 172.894531 115.253906 C 171.917969 112.449219 168.496094 111.449219 165.902344 112.722656 C 164.890625 113.21875 164.105469 114.050781 163.300781 114.8125 Z M 163.300781 114.8125 "/>
<path style=" stroke:none;fill-rule:nonzero;fill:rgb(83.137255%,83.137255%,82.352941%);fill-opacity:1;" d="M 170.234375 112.210938 L 170.664062 112.644531 Z M 170.234375 112.210938 "/>
<path style=" stroke:none;fill-rule:nonzero;fill:rgb(64.705882%,65.098039%,65.882353%);fill-opacity:1;" d="M 178.460938 114.8125 C 182.503906 113.15625 185.488281 112.832031 186.691406 117.847656 C 184.207031 118.167969 180.046875 118.300781 178.21875 120.195312 C 175.882812 122.605469 177.484375 126.667969 180.625 127.222656 C 183.210938 127.675781 184.894531 125.847656 186.691406 124.34375 L 186.691406 126.945312 L 187.558594 126.945312 L 187.558594 118.710938 C 187.558594 117.304688 187.734375 115.683594 187.046875 114.398438 C 185.378906 111.269531 179.539062 111.363281 178.460938 114.8125 Z M 178.460938 114.8125 "/>
<path style=" stroke:none;fill-rule:nonzero;fill:rgb(66.666667%,65.490196%,63.137255%);fill-opacity:1;" d="M 196.21875 112.210938 C 197.308594 116.917969 200.902344 121.691406 201.164062 126.511719 C 201.324219 129.421875 198.964844 132.152344 196.21875 132.578125 C 198.164062 135.535156 201.175781 131.761719 201.6875 129.542969 C 202.6875 125.164062 201.023438 121.441406 199.503906 117.414062 C 198.710938 115.3125 198.242188 113.386719 196.21875 112.210938 Z M 196.21875 112.210938 "/>
<path style=" stroke:none;fill-rule:nonzero;fill:rgb(74.117647%,75.686275%,80%);fill-opacity:1;" d="M 196.945312 112.359375 C 196.75 112.550781 197.207031 112.527344 197.230469 112.503906 C 197.425781 112.308594 196.964844 112.335938 196.945312 112.359375 Z M 196.945312 112.359375 "/>
<path style=" stroke:none;fill-rule:nonzero;fill:rgb(79.215686%,81.176471%,82.352941%);fill-opacity:1;" d="M 207.484375 112.210938 C 207.976562 112.652344 208.179688 112.78125 208.785156 113.078125 C 208.359375 112.308594 208.386719 112.390625 207.484375 112.210938 Z M 207.484375 112.210938 "/>
<path style=" stroke:none;fill-rule:nonzero;fill:rgb(86.27451%,85.882353%,85.098039%);fill-opacity:1;" d="M 210.082031 112.210938 L 210.082031 113.515625 C 210.382812 112.839844 210.382812 112.886719 210.082031 112.210938 Z M 210.082031 112.210938 "/>
<path style=" stroke:none;fill-rule:nonzero;fill:rgb(77.254902%,77.254902%,77.254902%);fill-opacity:1;" d="M 210.515625 112.210938 C 213.515625 113.472656 218.097656 112.644531 221.34375 112.644531 C 218.34375 111.386719 213.761719 112.210938 210.515625 112.210938 Z M 210.515625 112.210938 "/>
<path style=" stroke:none;fill-rule:nonzero;fill:rgb(65.098039%,64.313725%,65.882353%);fill-opacity:1;" d="M 234.773438 124.777344 C 233.347656 125.183594 231.941406 125.953125 230.441406 126.011719 C 226.707031 126.164062 225.089844 122.785156 224.8125 119.578125 L 235.636719 119.578125 C 235.464844 117.351562 235.28125 114.789062 233.425781 113.269531 C 229.410156 109.984375 224.097656 113.855469 223.59375 118.277344 C 223.335938 120.539062 223.792969 123.800781 225.414062 125.496094 C 227.867188 128.070312 233.046875 128.066406 234.773438 124.777344 Z M 234.773438 124.777344 "/>
<path style=" stroke:none;fill-rule:nonzero;fill:rgb(96.078431%,92.156863%,88.235294%);fill-opacity:1;" d="M 262.925781 112.210938 L 262.925781 121.746094 C 263.890625 119.457031 263.890625 114.503906 262.925781 112.210938 Z M 262.925781 112.210938 "/>
<path style=" stroke:none;fill-rule:nonzero;fill:rgb(71.372549%,75.686275%,80.392157%);fill-opacity:1;" d="M 263.363281 112.210938 C 264.878906 114.945312 264.226562 118.699219 264.226562 121.746094 C 265.355469 119.058594 264.660156 115.117188 264.660156 112.210938 Z M 263.363281 112.210938 "/>
<path style=" stroke:none;fill-rule:nonzero;fill:rgb(89.411765%,85.098039%,81.960784%);fill-opacity:1;" d="M 272.890625 112.210938 L 272.890625 122.175781 C 273.878906 119.820312 273.878906 114.570312 272.890625 112.210938 Z M 272.890625 112.210938 "/>
<path style=" stroke:none;fill-rule:nonzero;fill:rgb(77.647059%,82.745098%,85.098039%);fill-opacity:1;" d="M 273.324219 112.210938 C 275.445312 116.027344 274.1875 122.652344 274.1875 126.945312 C 274.863281 125.339844 274.621094 123.472656 274.621094 121.746094 L 274.621094 112.210938 Z M 273.324219 112.210938 "/>
<path style=" stroke:none;fill-rule:nonzero;fill:rgb(77.254902%,77.254902%,76.470588%);fill-opacity:1;" d="M 277.222656 112.210938 C 278.113281 112.59375 278.84375 112.625 279.820312 112.644531 C 278.933594 112.269531 278.199219 112.234375 277.222656 112.210938 Z M 277.222656 112.210938 "/>
<path style=" stroke:none;fill-rule:nonzero;fill:rgb(76.078431%,76.078431%,77.254902%);fill-opacity:1;" d="M 281.121094 112.210938 C 282.335938 112.730469 283.507812 112.695312 284.585938 113.515625 C 285.253906 111.742188 282.253906 112.210938 281.121094 112.210938 Z M 281.121094 112.210938 "/>
<path style=" stroke:none;fill-rule:nonzero;fill:rgb(75.686275%,75.686275%,75.294118%);fill-opacity:1;" d="M 285.882812 112.210938 C 286.773438 112.59375 287.507812 112.625 288.484375 112.644531 C 287.59375 112.269531 286.863281 112.234375 285.882812 112.210938 Z M 285.882812 112.210938 "/>
<path style=" stroke:none;fill-rule:nonzero;fill:rgb(77.647059%,78.431373%,78.039216%);fill-opacity:1;" d="M 289.78125 112.210938 C 290.996094 112.730469 292.171875 112.695312 293.25 113.515625 C 293.917969 111.742188 290.917969 112.210938 289.78125 112.210938 Z M 289.78125 112.210938 "/>
<path style=" stroke:none;fill-rule:nonzero;fill:rgb(64.705882%,65.490196%,65.098039%);fill-opacity:1;" d="M 299.746094 112.535156 C 291.441406 115.714844 295.933594 130.167969 304.941406 126.828125 C 312.742188 123.941406 308.804688 109.070312 299.746094 112.535156 Z M 299.746094 112.535156 "/>
<path style=" stroke:none;fill-rule:nonzero;fill:rgb(83.137255%,78.823529%,74.901961%);fill-opacity:1;" d="M 312.742188 112.210938 L 312.742188 126.945312 C 314.496094 122.761719 311.242188 116.339844 314.042969 112.644531 C 313.5 112.347656 313.371094 112.320312 312.742188 112.210938 Z M 312.742188 112.210938 "/>
<path style=" stroke:none;fill-rule:nonzero;fill:rgb(87.45098%,90.588235%,94.509804%);fill-opacity:1;" d="M 314.042969 112.210938 L 314.042969 114.8125 C 314.453125 113.824219 314.453125 113.203125 314.042969 112.210938 Z M 314.042969 112.210938 "/>
<path style=" stroke:none;fill-rule:nonzero;fill:rgb(64.313725%,63.921569%,68.235294%);fill-opacity:1;" d="M 314.042969 114.8125 L 314.042969 112.644531 L 313.171875 112.644531 L 313.171875 126.945312 L 314.042969 126.945312 C 314.042969 123.660156 313.21875 119.0625 314.945312 116.117188 C 316.269531 113.863281 319.160156 112.457031 321.308594 114.5 C 324.199219 117.257812 323.136719 123.34375 323.136719 126.945312 L 324.003906 126.945312 C 324.003906 123.378906 324.816406 118.644531 323.632812 115.253906 C 322.65625 112.449219 319.234375 111.449219 316.640625 112.722656 C 315.628906 113.21875 314.847656 114.050781 314.042969 114.8125 Z M 314.042969 114.8125 "/>
<path style=" stroke:none;fill-rule:nonzero;fill:rgb(75.686275%,75.294118%,77.647059%);fill-opacity:1;" d="M 334.398438 112.210938 C 335.289062 112.59375 336.023438 112.625 336.996094 112.644531 C 336.109375 112.269531 335.375 112.234375 334.398438 112.210938 Z M 334.398438 112.210938 "/>
<path style=" stroke:none;fill-rule:nonzero;fill:rgb(77.647059%,78.431373%,76.862745%);fill-opacity:1;" d="M 338.296875 112.210938 C 339.511719 112.730469 340.6875 112.695312 341.765625 113.515625 C 342.429688 111.742188 339.433594 112.210938 338.296875 112.210938 Z M 338.296875 112.210938 "/>
<path style=" stroke:none;fill-rule:nonzero;fill:rgb(64.705882%,65.490196%,65.098039%);fill-opacity:1;" d="M 348.257812 112.535156 C 339.953125 115.714844 344.449219 130.167969 353.457031 126.828125 C 361.257812 123.941406 357.320312 109.070312 348.257812 112.535156 Z M 348.257812 112.535156 "/>
<path style=" stroke:none;fill-rule:nonzero;fill:rgb(65.098039%,65.098039%,65.098039%);fill-opacity:1;" d="M 368.621094 125.210938 C 369.808594 128.886719 376.234375 127.511719 376.742188 123.910156 C 377.355469 119.546875 371.773438 119.953125 370.386719 116.933594 C 369.445312 114.875 372.027344 113.191406 373.8125 113.351562 C 374.679688 113.425781 375.570312 113.753906 376.417969 113.949219 C 375.207031 110.503906 369.019531 112.300781 368.703125 115.679688 C 368.324219 119.722656 373.085938 119.628906 374.777344 122.261719 C 376.3125 124.660156 373.25 126.226562 371.21875 125.910156 C 370.34375 125.769531 369.472656 125.4375 368.621094 125.210938 Z M 368.621094 125.210938 "/>
<path style=" stroke:none;fill-rule:nonzero;fill:rgb(76.078431%,77.254902%,76.078431%);fill-opacity:1;" d="M 378.582031 112.210938 C 379.472656 112.59375 380.203125 112.625 381.179688 112.644531 C 380.292969 112.269531 379.558594 112.234375 378.582031 112.210938 Z M 378.582031 112.210938 "/>
<path style=" stroke:none;fill-rule:nonzero;fill:rgb(75.686275%,76.078431%,77.254902%);fill-opacity:1;" d="M 382.480469 112.210938 C 383.695312 112.730469 384.867188 112.695312 385.945312 113.515625 C 386.613281 111.742188 383.613281 112.210938 382.480469 112.210938 Z M 382.480469 112.210938 "/>
<path style=" stroke:none;fill-rule:nonzero;fill:rgb(64.313725%,64.313725%,64.313725%);fill-opacity:1;" d="M 389.84375 114.8125 C 393.882812 113.15625 396.867188 112.832031 398.074219 117.847656 C 395.714844 118.152344 392.355469 118.316406 390.324219 119.617188 C 385.558594 122.667969 390.726562 129.472656 395.453125 126.507812 C 396.511719 125.84375 397.074219 124.980469 397.640625 123.910156 C 397.953125 124.957031 398.050781 125.847656 398.074219 126.945312 L 398.9375 126.945312 L 398.9375 118.710938 C 398.9375 117.304688 399.113281 115.683594 398.429688 114.398438 C 396.761719 111.269531 390.921875 111.363281 389.84375 114.8125 Z M 389.84375 114.8125 "/>
<path style=" stroke:none;fill-rule:nonzero;fill:rgb(82.745098%,78.823529%,74.117647%);fill-opacity:1;" d="M 403.269531 112.210938 L 403.269531 126.945312 C 405.027344 122.761719 401.777344 116.339844 404.570312 112.644531 C 404.03125 112.347656 403.898438 112.320312 403.269531 112.210938 Z M 403.269531 112.210938 "/>
<path style=" stroke:none;fill-rule:nonzero;fill:rgb(85.490196%,89.411765%,92.941176%);fill-opacity:1;" d="M 404.570312 112.210938 L 404.570312 115.246094 C 405.03125 114.148438 405.03125 113.3125 404.570312 112.210938 Z M 404.570312 112.210938 "/>
<path style=" stroke:none;fill-rule:nonzero;fill:rgb(65.098039%,65.490196%,65.882353%);fill-opacity:1;" d="M 405.003906 115.246094 C 404.726562 114.332031 404.613281 113.601562 404.570312 112.644531 L 403.707031 112.644531 L 403.707031 126.945312 L 404.570312 126.945312 C 404.570312 122.550781 403.382812 113.007812 410.203125 113.515625 C 409.519531 110.320312 405.648438 113.496094 405.003906 115.246094 Z M 405.003906 115.246094 "/>
<path style=" stroke:none;fill-rule:nonzero;fill:rgb(77.647059%,76.862745%,77.254902%);fill-opacity:1;" d="M 412.367188 112.210938 C 413.257812 112.59375 413.992188 112.625 414.964844 112.644531 C 414.078125 112.269531 413.34375 112.234375 412.367188 112.210938 Z M 412.367188 112.210938 "/>
<path style=" stroke:none;fill-rule:nonzero;fill:rgb(74.901961%,76.470588%,77.254902%);fill-opacity:1;" d="M 416.265625 112.210938 C 417.480469 112.730469 418.65625 112.695312 419.734375 113.515625 C 420.398438 111.742188 417.402344 112.210938 416.265625 112.210938 Z M 416.265625 112.210938 "/>
<path style=" stroke:none;fill-rule:nonzero;fill:rgb(67.843137%,64.313725%,62.352941%);fill-opacity:1;" d="M 104.390625 112.644531 L 104.390625 126.511719 C 105.515625 123.828125 104.824219 119.878906 104.824219 116.980469 C 104.824219 115.496094 104.96875 114.019531 104.390625 112.644531 Z M 104.390625 112.644531 "/>
<path style=" stroke:none;fill-rule:nonzero;fill:rgb(62.745098%,63.529412%,69.019608%);fill-opacity:1;" d="M 104.824219 112.644531 C 104.824219 117.273438 105.464844 122.429688 104.390625 126.945312 C 105.519531 125.957031 105.257812 124.484375 105.257812 123.046875 C 105.261719 119.921875 106.039062 115.539062 104.824219 112.644531 Z M 104.824219 112.644531 "/>
<path style=" stroke:none;fill-rule:nonzero;fill:rgb(66.27451%,64.313725%,63.921569%);fill-opacity:1;" d="M 132.980469 126.945312 C 131.269531 124.289062 128.863281 121.496094 126.046875 120.011719 C 127.886719 117.40625 130.757812 115.558594 132.113281 112.644531 C 129.847656 113.28125 125.109375 116.890625 125.226562 119.578125 C 125.355469 122.511719 130.34375 126.539062 132.980469 126.945312 Z M 132.980469 126.945312 "/>
<path style=" stroke:none;fill-rule:nonzero;fill:rgb(64.705882%,67.058824%,67.45098%);fill-opacity:1;" d="M 207.050781 112.644531 C 205.355469 117.851562 202.003906 123.132812 201.851562 128.675781 C 203.164062 127.050781 203.667969 124.964844 204.457031 123.046875 C 205.835938 119.6875 207.730469 116.242188 208.347656 112.644531 Z M 207.050781 112.644531 "/>
<path style=" stroke:none;fill-rule:nonzero;fill:rgb(67.058824%,65.490196%,65.098039%);fill-opacity:1;" d="M 210.515625 112.644531 L 210.515625 113.515625 L 219.179688 113.515625 C 216.070312 117.714844 211.535156 122.042969 209.648438 126.945312 L 220.914062 126.945312 L 220.914062 126.078125 L 211.8125 126.078125 C 214.714844 121.421875 218.625 117.417969 221.34375 112.644531 Z M 210.515625 112.644531 "/>
<path style=" stroke:none;fill-rule:nonzero;fill:rgb(65.882353%,65.882353%,65.098039%);fill-opacity:1;" d="M 263.363281 112.644531 C 263.363281 116.214844 262.390625 121.496094 264.042969 124.757812 C 265.972656 128.570312 271.097656 127.613281 272.890625 124.34375 C 273.167969 125.257812 273.28125 125.988281 273.324219 126.945312 L 274.1875 126.945312 L 274.1875 112.644531 L 273.324219 112.644531 C 273.324219 115.929688 274.144531 120.53125 272.417969 123.472656 C 271.144531 125.644531 268.21875 126.988281 266.132812 125.023438 C 263.1875 122.25 264.226562 116.269531 264.226562 112.644531 Z M 263.363281 112.644531 "/>
<path style=" stroke:none;fill-rule:nonzero;fill:rgb(91.372549%,91.372549%,87.843137%);fill-opacity:1;" d="M 285.597656 112.9375 C 285.574219 112.960938 285.546875 113.417969 285.742188 113.222656 C 285.765625 113.199219 285.789062 112.742188 285.597656 112.9375 Z M 285.597656 112.9375 "/>
<path style=" stroke:none;fill-rule:nonzero;fill:rgb(91.764706%,91.372549%,92.54902%);fill-opacity:1;" d="M 115.222656 113.078125 C 115.875 113.375 116.222656 113.4375 116.953125 113.515625 C 116.300781 113.214844 115.949219 113.15625 115.222656 113.078125 Z M 115.222656 113.078125 "/>
<path style=" stroke:none;fill-rule:nonzero;fill:rgb(88.235294%,88.627451%,86.666667%);fill-opacity:1;" d="M 167.199219 113.078125 C 167.851562 113.375 168.203125 113.4375 168.929688 113.515625 C 168.28125 113.214844 167.929688 113.15625 167.199219 113.078125 Z M 167.199219 113.078125 "/>
<path style=" stroke:none;fill-rule:nonzero;fill:rgb(87.45098%,86.666667%,87.058824%);fill-opacity:1;" d="M 181.929688 113.078125 C 182.578125 113.375 182.929688 113.4375 183.660156 113.515625 C 183.007812 113.214844 182.65625 113.15625 181.929688 113.078125 Z M 181.929688 113.078125 "/>
<path style=" stroke:none;fill-rule:nonzero;fill:rgb(80%,81.960784%,82.352941%);fill-opacity:1;" d="M 228.996094 113.222656 C 228.804688 113.417969 229.261719 113.390625 229.285156 113.371094 C 229.480469 113.175781 229.019531 113.199219 228.996094 113.222656 Z M 228.996094 113.222656 "/>
<path style=" stroke:none;fill-rule:nonzero;fill:rgb(90.196078%,90.588235%,90.588235%);fill-opacity:1;" d="M 229.863281 113.222656 C 229.671875 113.417969 230.128906 113.390625 230.152344 113.371094 C 230.34375 113.175781 229.886719 113.199219 229.863281 113.222656 Z M 229.863281 113.222656 "/>
<path style=" stroke:none;fill-rule:nonzero;fill:rgb(100%,100%,100%);fill-opacity:1;" d="M 252.964844 113.328125 C 246.558594 114.125 247.015625 126.84375 253.832031 125.980469 C 260.078125 125.183594 259.859375 112.472656 252.964844 113.328125 Z M 252.964844 113.328125 "/>
<path style=" stroke:none;fill-rule:nonzero;fill:rgb(81.176471%,81.176471%,81.176471%);fill-opacity:1;" d="M 301.335938 113.222656 C 301.140625 113.417969 301.601562 113.390625 301.625 113.371094 C 301.816406 113.175781 301.359375 113.199219 301.335938 113.222656 Z M 301.335938 113.222656 "/>
<path style=" stroke:none;fill-rule:nonzero;fill:rgb(100%,100%,100%);fill-opacity:1;" d="M 301.910156 113.355469 C 294.355469 114.019531 295.382812 126.984375 303.210938 125.992188 C 309.773438 125.164062 309.105469 112.726562 301.910156 113.355469 Z M 301.910156 113.355469 "/>
<path style=" stroke:none;fill-rule:nonzero;fill:rgb(78.823529%,78.823529%,78.823529%);fill-opacity:1;" d="M 303.066406 113.222656 C 302.875 113.417969 303.332031 113.390625 303.355469 113.371094 C 303.550781 113.175781 303.089844 113.199219 303.066406 113.222656 Z M 303.066406 113.222656 "/>
<path style=" stroke:none;fill-rule:nonzero;fill:rgb(89.019608%,89.019608%,89.019608%);fill-opacity:1;" d="M 318.375 113.078125 C 318.914062 113.378906 319.042969 113.402344 319.671875 113.515625 C 319.132812 113.214844 319 113.191406 318.375 113.078125 Z M 318.375 113.078125 "/>
<path style=" stroke:none;fill-rule:nonzero;fill:rgb(81.176471%,81.176471%,81.176471%);fill-opacity:1;" d="M 349.847656 113.222656 C 349.65625 113.417969 350.113281 113.390625 350.136719 113.371094 C 350.332031 113.175781 349.871094 113.199219 349.847656 113.222656 Z M 349.847656 113.222656 "/>
<path style=" stroke:none;fill-rule:nonzero;fill:rgb(100%,100%,100%);fill-opacity:1;" d="M 350.425781 113.355469 C 342.871094 114.019531 343.894531 126.984375 351.726562 125.992188 C 358.289062 125.164062 357.617188 112.726562 350.425781 113.355469 Z M 350.425781 113.355469 "/>
<path style=" stroke:none;fill-rule:nonzero;fill:rgb(78.823529%,78.823529%,78.823529%);fill-opacity:1;" d="M 351.582031 113.222656 C 351.386719 113.417969 351.847656 113.390625 351.871094 113.371094 C 352.0625 113.175781 351.605469 113.199219 351.582031 113.222656 Z M 351.582031 113.222656 "/>
<path style=" stroke:none;fill-rule:nonzero;fill:rgb(89.019608%,88.627451%,88.627451%);fill-opacity:1;" d="M 372.082031 113.078125 C 372.851562 113.417969 373.398438 113.476562 374.25 113.515625 C 373.484375 113.175781 372.933594 113.117188 372.082031 113.078125 Z M 372.082031 113.078125 "/>
<path style=" stroke:none;fill-rule:nonzero;fill:rgb(87.058824%,87.058824%,87.058824%);fill-opacity:1;" d="M 393.308594 113.078125 C 393.960938 113.375 394.3125 113.4375 395.039062 113.515625 C 394.390625 113.214844 394.039062 113.15625 393.308594 113.078125 Z M 393.308594 113.078125 "/>
<path style=" stroke:none;fill-rule:nonzero;fill:rgb(77.647059%,77.254902%,77.254902%);fill-opacity:1;" d="M 408.039062 113.078125 C 408.578125 113.378906 408.707031 113.402344 409.335938 113.515625 C 408.796875 113.214844 408.664062 113.191406 408.039062 113.078125 Z M 408.039062 113.078125 "/>
<path style=" stroke:none;fill-rule:nonzero;fill:rgb(82.745098%,78.431373%,75.686275%);fill-opacity:1;" d="M 79.414062 113.800781 C 79.390625 113.824219 79.363281 114.285156 79.558594 114.089844 C 79.582031 114.066406 79.605469 113.609375 79.414062 113.800781 Z M 79.414062 113.800781 "/>
<path style=" stroke:none;fill-rule:nonzero;fill:rgb(95.294118%,90.588235%,85.490196%);fill-opacity:1;" d="M 152.617188 113.800781 C 152.59375 113.824219 152.566406 114.285156 152.761719 114.089844 C 152.785156 114.066406 152.808594 113.609375 152.617188 113.800781 Z M 152.617188 113.800781 "/>
<path style=" stroke:none;fill-rule:nonzero;fill:rgb(79.607843%,80.784314%,83.137255%);fill-opacity:1;" d="M 171.964844 113.515625 L 172.398438 113.949219 Z M 171.964844 113.515625 "/>
<path style=" stroke:none;fill-rule:nonzero;fill:rgb(84.705882%,84.705882%,83.921569%);fill-opacity:1;" d="M 178.03125 113.515625 L 178.03125 114.8125 C 178.328125 114.140625 178.328125 114.1875 178.03125 113.515625 Z M 178.03125 113.515625 "/>
<path style=" stroke:none;fill-rule:nonzero;fill:rgb(78.823529%,81.176471%,86.666667%);fill-opacity:1;" d="M 220.480469 113.515625 L 220.914062 113.949219 Z M 220.480469 113.515625 "/>
<path style=" stroke:none;fill-rule:nonzero;fill:rgb(100%,100%,100%);fill-opacity:1;" d="M 225.242188 118.277344 L 234.339844 118.277344 C 233.96875 116.863281 233.757812 115.210938 232.507812 114.265625 C 229.148438 111.738281 225.433594 114.78125 225.242188 118.277344 Z M 225.242188 118.277344 "/>
<path style=" stroke:none;fill-rule:nonzero;fill:rgb(83.137255%,83.529412%,80%);fill-opacity:1;" d="M 231.738281 113.515625 L 232.175781 113.949219 Z M 231.738281 113.515625 "/>
<path style=" stroke:none;fill-rule:nonzero;fill:rgb(81.176471%,80.784314%,80%);fill-opacity:1;" d="M 255.566406 113.515625 L 256 113.949219 Z M 255.566406 113.515625 "/>
<path style=" stroke:none;fill-rule:nonzero;fill:rgb(66.27451%,69.803922%,73.333333%);fill-opacity:1;" d="M 280.6875 113.515625 L 280.6875 124.34375 C 281.734375 121.851562 281.734375 116.003906 280.6875 113.515625 Z M 280.6875 113.515625 "/>
<path style=" stroke:none;fill-rule:nonzero;fill:rgb(100%,97.254902%,92.941176%);fill-opacity:1;" d="M 287.1875 113.515625 C 287.457031 117.140625 287.617188 120.699219 287.617188 124.34375 L 288.484375 124.34375 L 288.484375 113.515625 Z M 287.1875 113.515625 "/>
<path style=" stroke:none;fill-rule:nonzero;fill:rgb(65.882353%,69.803922%,74.117647%);fill-opacity:1;" d="M 289.351562 113.515625 L 289.351562 124.34375 C 290.398438 121.851562 290.398438 116.003906 289.351562 113.515625 Z M 289.351562 113.515625 "/>
<path style=" stroke:none;fill-rule:nonzero;fill:rgb(85.098039%,82.745098%,80%);fill-opacity:1;" d="M 297.578125 113.515625 L 298.011719 113.949219 Z M 297.578125 113.515625 "/>
<path style=" stroke:none;fill-rule:nonzero;fill:rgb(82.745098%,83.529412%,83.137255%);fill-opacity:1;" d="M 299.746094 113.515625 L 300.179688 113.949219 Z M 299.746094 113.515625 "/>
<path style=" stroke:none;fill-rule:nonzero;fill:rgb(85.098039%,82.745098%,80%);fill-opacity:1;" d="M 346.09375 113.515625 L 346.527344 113.949219 Z M 346.09375 113.515625 "/>
<path style=" stroke:none;fill-rule:nonzero;fill:rgb(82.745098%,83.529412%,83.137255%);fill-opacity:1;" d="M 348.257812 113.515625 L 348.691406 113.949219 Z M 348.257812 113.515625 "/>
<path style=" stroke:none;fill-rule:nonzero;fill:rgb(65.882353%,69.411765%,74.509804%);fill-opacity:1;" d="M 382.046875 113.515625 L 382.046875 124.34375 C 383.09375 121.851562 383.09375 116.003906 382.046875 113.515625 Z M 382.046875 113.515625 "/>
<path style=" stroke:none;fill-rule:nonzero;fill:rgb(85.490196%,85.098039%,83.137255%);fill-opacity:1;" d="M 389.410156 113.515625 L 389.410156 114.8125 C 389.710938 114.140625 389.710938 114.1875 389.410156 113.515625 Z M 389.410156 113.515625 "/>
<path style=" stroke:none;fill-rule:nonzero;fill:rgb(66.27451%,69.019608%,74.509804%);fill-opacity:1;" d="M 415.835938 113.515625 L 415.835938 124.34375 C 416.878906 121.851562 416.878906 116.003906 415.835938 113.515625 Z M 415.835938 113.515625 "/>
<path style=" stroke:none;fill-rule:nonzero;fill:rgb(81.176471%,80.784314%,80%);fill-opacity:1;" d="M 249.066406 113.949219 L 249.5 114.378906 Z M 249.066406 113.949219 "/>
<path style=" stroke:none;fill-rule:nonzero;fill:rgb(80.392157%,81.176471%,80.784314%);fill-opacity:1;" d="M 250.367188 113.949219 L 250.796875 114.378906 Z M 250.367188 113.949219 "/>
<path style=" stroke:none;fill-rule:nonzero;fill:rgb(85.098039%,82.745098%,80.392157%);fill-opacity:1;" d="M 297.148438 113.949219 L 297.578125 114.378906 L 297.148438 113.949219 M 345.664062 113.949219 L 346.09375 114.378906 Z M 345.664062 113.949219 "/>
<path style=" stroke:none;fill-rule:nonzero;fill:rgb(65.882353%,69.803922%,74.117647%);fill-opacity:1;" d="M 337.867188 114.378906 L 337.867188 124.34375 C 338.855469 121.988281 338.855469 116.738281 337.867188 114.378906 Z M 337.867188 114.378906 "/>
<path style=" stroke:none;fill-rule:nonzero;fill:rgb(80%,81.176471%,86.666667%);fill-opacity:1;" d="M 219.179688 115.246094 L 219.609375 115.679688 Z M 219.179688 115.246094 "/>
<path style=" stroke:none;fill-rule:nonzero;fill:rgb(77.647059%,81.568627%,85.882353%);fill-opacity:1;" d="M 405.4375 115.246094 L 405.871094 115.679688 Z M 405.4375 115.246094 "/>
<path style=" stroke:none;fill-rule:nonzero;fill:rgb(89.803922%,85.098039%,80.784314%);fill-opacity:1;" d="M 78.835938 115.679688 L 78.835938 118.710938 C 79.292969 117.617188 79.292969 116.777344 78.835938 115.679688 Z M 78.835938 115.679688 "/>
<path style=" stroke:none;fill-rule:nonzero;fill:rgb(83.921569%,88.235294%,92.941176%);fill-opacity:1;" d="M 187.558594 115.679688 L 187.558594 126.945312 C 188.628906 124.386719 188.628906 118.238281 187.558594 115.679688 Z M 187.558594 115.679688 "/>
<path style=" stroke:none;fill-rule:nonzero;fill:rgb(71.764706%,74.901961%,80%);fill-opacity:1;" d="M 259.171875 115.96875 C 259.152344 115.992188 259.125 116.449219 259.320312 116.257812 C 259.339844 116.234375 259.367188 115.777344 259.171875 115.96875 Z M 259.171875 115.96875 "/>
<path style=" stroke:none;fill-rule:nonzero;fill:rgb(92.941176%,89.019608%,85.098039%);fill-opacity:1;" d="M 322.414062 115.96875 C 322.390625 115.992188 322.367188 116.449219 322.558594 116.257812 C 322.582031 116.234375 322.609375 115.777344 322.414062 115.96875 Z M 322.414062 115.96875 "/>
<path style=" stroke:none;fill-rule:nonzero;fill:rgb(84.313725%,88.627451%,92.54902%);fill-opacity:1;" d="M 398.9375 115.679688 L 398.9375 126.945312 C 400.015625 124.386719 400.015625 118.238281 398.9375 115.679688 Z M 398.9375 115.679688 "/>
<path style=" stroke:none;fill-rule:nonzero;fill:rgb(81.960784%,78.431373%,73.333333%);fill-opacity:1;" d="M 186.257812 116.546875 L 186.257812 117.847656 C 186.558594 117.171875 186.558594 117.21875 186.257812 116.546875 Z M 186.257812 116.546875 "/>
<path style=" stroke:none;fill-rule:nonzero;fill:rgb(77.254902%,80.392157%,83.921569%);fill-opacity:1;" d="M 235.203125 116.546875 L 235.203125 117.847656 C 235.507812 117.171875 235.507812 117.21875 235.203125 116.546875 Z M 235.203125 116.546875 "/>
<path style=" stroke:none;fill-rule:nonzero;fill:rgb(82.352941%,78.039216%,73.72549%);fill-opacity:1;" d="M 397.640625 116.546875 L 397.640625 117.847656 C 397.941406 117.171875 397.941406 117.21875 397.640625 116.546875 Z M 397.640625 116.546875 "/>
<path style=" stroke:none;fill-rule:nonzero;fill:rgb(90.980392%,94.901961%,98.039216%);fill-opacity:1;" d="M 173.261719 116.980469 L 173.261719 126.945312 C 174.253906 124.585938 174.253906 119.339844 173.261719 116.980469 Z M 173.261719 116.980469 "/>
<path style=" stroke:none;fill-rule:nonzero;fill:rgb(89.019608%,85.098039%,82.745098%);fill-opacity:1;" d="M 234.050781 117.269531 C 234.027344 117.292969 234 117.75 234.195312 117.558594 C 234.21875 117.53125 234.242188 117.074219 234.050781 117.269531 Z M 234.050781 117.269531 "/>
<path style=" stroke:none;fill-rule:nonzero;fill:rgb(80.784314%,77.254902%,71.372549%);fill-opacity:1;" d="M 109.15625 117.414062 L 109.15625 118.710938 C 109.457031 118.039062 109.457031 118.085938 109.15625 117.414062 Z M 109.15625 117.414062 "/>
<path style=" stroke:none;fill-rule:nonzero;fill:rgb(77.647059%,81.176471%,87.058824%);fill-opacity:1;" d="M 110.453125 117.414062 L 110.453125 118.710938 C 110.757812 118.039062 110.757812 118.085938 110.453125 117.414062 Z M 110.453125 117.414062 "/>
<path style=" stroke:none;fill-rule:nonzero;fill:rgb(83.137255%,89.019608%,92.941176%);fill-opacity:1;" d="M 163.300781 117.414062 L 163.300781 126.945312 C 164.261719 124.652344 164.261719 119.703125 163.300781 117.414062 Z M 163.300781 117.414062 "/>
<path style=" stroke:none;fill-rule:nonzero;fill:rgb(90.588235%,90.588235%,89.803922%);fill-opacity:1;" d="M 224.8125 117.414062 C 225.324219 119.8125 232.1875 118.710938 234.339844 118.710938 C 231.308594 117.441406 227.804688 119.082031 224.8125 117.414062 Z M 224.8125 117.414062 "/>
<path style=" stroke:none;fill-rule:nonzero;fill:rgb(87.45098%,84.313725%,77.254902%);fill-opacity:1;" d="M 258.164062 117.414062 L 258.164062 119.578125 C 258.523438 118.699219 258.523438 118.292969 258.164062 117.414062 Z M 258.164062 117.414062 "/>
<path style=" stroke:none;fill-rule:nonzero;fill:rgb(67.058824%,65.490196%,58.823529%);fill-opacity:1;" d="M 258.59375 117.414062 L 258.59375 120.878906 C 259.101562 119.679688 259.101562 118.613281 258.59375 117.414062 Z M 258.59375 117.414062 "/>
<path style=" stroke:none;fill-rule:nonzero;fill:rgb(77.647059%,81.176471%,86.27451%);fill-opacity:1;" d="M 259.464844 117.414062 L 259.464844 121.3125 C 260.007812 120.015625 260.007812 118.710938 259.464844 117.414062 Z M 259.464844 117.414062 "/>
<path style=" stroke:none;fill-rule:nonzero;fill:rgb(84.705882%,89.019608%,92.941176%);fill-opacity:1;" d="M 314.042969 117.414062 L 314.042969 126.945312 C 315 124.652344 315 119.703125 314.042969 117.414062 Z M 314.042969 117.414062 "/>
<path style=" stroke:none;fill-rule:nonzero;fill:rgb(90.980392%,94.509804%,99.215686%);fill-opacity:1;" d="M 324.003906 117.414062 L 324.003906 126.945312 C 324.964844 124.652344 324.964844 119.703125 324.003906 117.414062 Z M 324.003906 117.414062 "/>
<path style=" stroke:none;fill-rule:nonzero;fill:rgb(76.862745%,72.156863%,68.235294%);fill-opacity:1;" d="M 171.964844 117.847656 L 171.964844 126.945312 C 172.898438 124.722656 172.898438 120.070312 171.964844 117.847656 Z M 171.964844 117.847656 "/>
<path style=" stroke:none;fill-rule:nonzero;fill:rgb(84.705882%,89.019608%,92.941176%);fill-opacity:1;" d="M 248.203125 117.847656 L 248.203125 121.3125 C 248.703125 120.109375 248.703125 119.046875 248.203125 117.847656 Z M 248.203125 117.847656 "/>
<path style=" stroke:none;fill-rule:nonzero;fill:rgb(91.764706%,85.882353%,81.960784%);fill-opacity:1;" d="M 307.542969 117.847656 L 307.542969 120.445312 C 307.953125 119.457031 307.953125 118.835938 307.542969 117.847656 Z M 307.542969 117.847656 "/>
<path style=" stroke:none;fill-rule:nonzero;fill:rgb(69.803922%,74.117647%,78.431373%);fill-opacity:1;" d="M 308.84375 117.847656 L 308.84375 120.445312 C 309.253906 119.457031 309.253906 118.835938 308.84375 117.847656 Z M 308.84375 117.847656 "/>
<path style=" stroke:none;fill-rule:nonzero;fill:rgb(76.470588%,72.156863%,67.843137%);fill-opacity:1;" d="M 322.703125 117.847656 L 322.703125 126.945312 C 323.636719 124.722656 323.636719 120.070312 322.703125 117.847656 Z M 322.703125 117.847656 "/>
<path style=" stroke:none;fill-rule:nonzero;fill:rgb(91.764706%,85.882353%,81.960784%);fill-opacity:1;" d="M 356.054688 117.847656 L 356.054688 120.445312 C 356.46875 119.457031 356.46875 118.835938 356.054688 117.847656 Z M 356.054688 117.847656 "/>
<path style=" stroke:none;fill-rule:nonzero;fill:rgb(69.803922%,74.117647%,78.431373%);fill-opacity:1;" d="M 357.359375 117.847656 L 357.359375 120.445312 C 357.769531 119.457031 357.769531 118.835938 357.359375 117.847656 Z M 357.359375 117.847656 "/>
<path style=" stroke:none;fill-rule:nonzero;fill:rgb(84.705882%,88.235294%,95.686275%);fill-opacity:1;" d="M 404.570312 117.847656 L 404.570312 126.945312 C 405.503906 124.722656 405.503906 120.070312 404.570312 117.847656 Z M 404.570312 117.847656 "/>
<path style=" stroke:none;fill-rule:nonzero;fill:rgb(81.568627%,81.176471%,78.823529%);fill-opacity:1;" d="M 125.183594 118.277344 L 125.617188 118.710938 Z M 125.183594 118.277344 "/>
<path style=" stroke:none;fill-rule:nonzero;fill:rgb(77.254902%,78.039216%,76.078431%);fill-opacity:1;" d="M 182.648438 118.425781 C 182.457031 118.617188 182.914062 118.59375 182.9375 118.566406 C 183.132812 118.375 182.671875 118.398438 182.648438 118.425781 Z M 182.648438 118.425781 "/>
<path style=" stroke:none;fill-rule:nonzero;fill:rgb(77.647059%,77.647059%,78.431373%);fill-opacity:1;" d="M 394.03125 118.425781 C 393.839844 118.613281 394.296875 118.59375 394.320312 118.566406 C 394.511719 118.375 394.054688 118.398438 394.03125 118.425781 Z M 394.03125 118.425781 "/>
<path style=" stroke:none;fill-rule:nonzero;fill:rgb(80.392157%,80.784314%,81.568627%);fill-opacity:1;" d="M 216.582031 118.710938 L 217.015625 119.144531 Z M 216.582031 118.710938 "/>
<path style=" stroke:none;fill-rule:nonzero;fill:rgb(76.862745%,76.862745%,76.862745%);fill-opacity:1;" d="M 146.84375 119.144531 C 149.101562 120.09375 152.199219 119.578125 154.640625 119.578125 C 152.375 118.628906 149.28125 119.144531 146.84375 119.144531 Z M 146.84375 119.144531 "/>
<path style=" stroke:none;fill-rule:nonzero;fill:rgb(80.784314%,80.784314%,80%);fill-opacity:1;" d="M 184.382812 119.289062 C 184.1875 119.480469 184.648438 119.457031 184.671875 119.433594 C 184.863281 119.242188 184.40625 119.265625 184.382812 119.289062 Z M 184.382812 119.289062 "/>
<path style=" stroke:none;fill-rule:nonzero;fill:rgb(100%,100%,100%);fill-opacity:1;" d="M 186.257812 119.144531 C 184.957031 119.3125 183.652344 119.519531 182.359375 119.761719 C 181.515625 119.921875 180.570312 120.054688 179.824219 120.515625 C 178.246094 121.496094 177.992188 124.113281 179.46875 125.324219 C 181.640625 127.113281 184.980469 125.332031 185.871094 123.042969 C 186.347656 121.820312 186.253906 120.433594 186.257812 119.144531 Z M 186.257812 119.144531 "/>
<path style=" stroke:none;fill-rule:nonzero;fill:rgb(82.352941%,79.215686%,76.470588%);fill-opacity:1;" d="M 186.257812 119.144531 L 186.257812 121.3125 C 186.617188 120.433594 186.617188 120.027344 186.257812 119.144531 Z M 186.257812 119.144531 "/>
<path style=" stroke:none;fill-rule:nonzero;fill:rgb(81.176471%,81.568627%,79.215686%);fill-opacity:1;" d="M 395.765625 119.289062 C 395.570312 119.480469 396.027344 119.457031 396.050781 119.433594 C 396.246094 119.242188 395.785156 119.265625 395.765625 119.289062 Z M 395.765625 119.289062 "/>
<path style=" stroke:none;fill-rule:nonzero;fill:rgb(100%,100%,100%);fill-opacity:1;" d="M 397.640625 119.144531 C 396.335938 119.3125 395.035156 119.519531 393.742188 119.761719 C 392.898438 119.921875 391.953125 120.054688 391.207031 120.515625 C 389.628906 121.496094 389.375 124.113281 390.847656 125.324219 C 393.023438 127.113281 396.363281 125.332031 397.253906 123.042969 C 397.726562 121.820312 397.636719 120.433594 397.640625 119.144531 Z M 397.640625 119.144531 "/>
<path style=" stroke:none;fill-rule:nonzero;fill:rgb(82.352941%,78.431373%,77.254902%);fill-opacity:1;" d="M 397.640625 119.144531 L 397.640625 121.3125 C 398 120.433594 398 120.027344 397.640625 119.144531 Z M 397.640625 119.144531 "/>
<path style=" stroke:none;fill-rule:nonzero;fill:rgb(88.627451%,89.803922%,87.45098%);fill-opacity:1;" d="M 181.78125 119.722656 C 181.589844 119.917969 182.046875 119.890625 182.070312 119.867188 C 182.265625 119.675781 181.804688 119.699219 181.78125 119.722656 Z M 181.78125 119.722656 "/>
<path style=" stroke:none;fill-rule:nonzero;fill:rgb(89.803922%,89.803922%,89.803922%);fill-opacity:1;" d="M 224.8125 119.578125 C 227.808594 120.835938 232.390625 120.011719 235.636719 120.011719 C 232.636719 118.753906 228.054688 119.578125 224.8125 119.578125 Z M 224.8125 119.578125 "/>
<path style=" stroke:none;fill-rule:nonzero;fill:rgb(80.392157%,80%,79.215686%);fill-opacity:1;" d="M 371.21875 119.578125 L 371.648438 120.011719 Z M 371.21875 119.578125 "/>
<path style=" stroke:none;fill-rule:nonzero;fill:rgb(88.627451%,89.411765%,89.019608%);fill-opacity:1;" d="M 393.164062 119.722656 C 392.972656 119.917969 393.429688 119.890625 393.453125 119.867188 C 393.648438 119.675781 393.1875 119.699219 393.164062 119.722656 Z M 393.164062 119.722656 "/>
<path style=" stroke:none;fill-rule:nonzero;fill:rgb(85.098039%,88.627451%,94.509804%);fill-opacity:1;" d="M 124.316406 120.011719 L 124.316406 126.945312 C 125.199219 124.839844 124.648438 122.269531 125.183594 120.011719 Z M 124.316406 120.011719 "/>
<path style=" stroke:none;fill-rule:nonzero;fill:rgb(89.803922%,90.588235%,92.156863%);fill-opacity:1;" d="M 146.410156 120.445312 C 148.882812 121.484375 152.398438 120.878906 155.070312 120.878906 C 152.59375 119.839844 149.082031 120.445312 146.410156 120.445312 Z M 146.410156 120.445312 "/>
<path style=" stroke:none;fill-rule:nonzero;fill:rgb(86.27451%,88.235294%,90.980392%);fill-opacity:1;" d="M 224.8125 120.445312 L 224.8125 121.746094 C 225.109375 121.070312 225.109375 121.117188 224.8125 120.445312 Z M 224.8125 120.445312 "/>
<path style=" stroke:none;fill-rule:nonzero;fill:rgb(80.392157%,76.470588%,73.333333%);fill-opacity:1;" d="M 307.542969 120.445312 L 307.542969 121.746094 C 307.84375 121.070312 307.84375 121.117188 307.542969 120.445312 Z M 307.542969 120.445312 "/>
<path style=" stroke:none;fill-rule:nonzero;fill:rgb(78.823529%,84.313725%,88.627451%);fill-opacity:1;" d="M 308.84375 120.445312 L 308.84375 121.746094 C 309.144531 121.070312 309.144531 121.117188 308.84375 120.445312 Z M 308.84375 120.445312 "/>
<path style=" stroke:none;fill-rule:nonzero;fill:rgb(80.392157%,76.470588%,73.333333%);fill-opacity:1;" d="M 356.054688 120.445312 L 356.054688 121.746094 C 356.359375 121.070312 356.359375 121.117188 356.054688 120.445312 Z M 356.054688 120.445312 "/>
<path style=" stroke:none;fill-rule:nonzero;fill:rgb(78.823529%,84.313725%,88.627451%);fill-opacity:1;" d="M 357.359375 120.445312 L 357.359375 121.746094 C 357.65625 121.070312 357.65625 121.117188 357.359375 120.445312 Z M 357.359375 120.445312 "/>
<path style=" stroke:none;fill-rule:nonzero;fill:rgb(81.176471%,77.254902%,73.333333%);fill-opacity:1;" d="M 223.507812 120.878906 L 223.507812 122.175781 C 223.8125 121.503906 223.8125 121.550781 223.507812 120.878906 Z M 223.507812 120.878906 "/>
<path style=" stroke:none;fill-rule:nonzero;fill:rgb(74.509804%,78.431373%,82.352941%);fill-opacity:1;" d="M 248.34375 121.601562 C 248.320312 121.625 248.296875 122.082031 248.488281 121.890625 C 248.511719 121.867188 248.539062 121.40625 248.34375 121.601562 Z M 248.34375 121.601562 "/>
<path style=" stroke:none;fill-rule:nonzero;fill:rgb(86.27451%,84.705882%,80.784314%);fill-opacity:1;" d="M 295.414062 121.3125 L 295.414062 122.613281 C 295.714844 121.9375 295.714844 121.984375 295.414062 121.3125 M 343.929688 121.3125 L 343.929688 122.613281 C 344.230469 121.9375 344.230469 121.984375 343.929688 121.3125 Z M 343.929688 121.3125 "/>
<path style=" stroke:none;fill-rule:nonzero;fill:rgb(79.607843%,81.568627%,84.313725%);fill-opacity:1;" d="M 128.648438 122.175781 L 129.082031 122.613281 Z M 128.648438 122.175781 "/>
<path style=" stroke:none;fill-rule:nonzero;fill:rgb(90.980392%,85.490196%,80.392157%);fill-opacity:1;" d="M 176.726562 122.175781 L 176.726562 123.910156 C 177.039062 123.148438 177.039062 122.941406 176.726562 122.175781 Z M 176.726562 122.175781 "/>
<path style=" stroke:none;fill-rule:nonzero;fill:rgb(73.72549%,75.294118%,80.392157%);fill-opacity:1;" d="M 178.03125 122.175781 L 178.03125 123.910156 C 178.335938 123.148438 178.335938 122.941406 178.03125 122.175781 Z M 178.03125 122.175781 "/>
<path style=" stroke:none;fill-rule:nonzero;fill:rgb(89.803922%,85.490196%,80.392157%);fill-opacity:1;" d="M 388.113281 122.175781 L 388.113281 123.910156 C 388.417969 123.148438 388.417969 122.941406 388.113281 122.175781 Z M 388.113281 122.175781 "/>
<path style=" stroke:none;fill-rule:nonzero;fill:rgb(72.941176%,75.294118%,81.568627%);fill-opacity:1;" d="M 389.410156 122.175781 L 389.410156 123.910156 C 389.71875 123.148438 389.71875 122.941406 389.410156 122.175781 Z M 389.410156 122.175781 "/>
<path style=" stroke:none;fill-rule:nonzero;fill:rgb(82.745098%,82.745098%,84.313725%);fill-opacity:1;" d="M 82.300781 123.046875 L 82.734375 123.480469 Z M 82.300781 123.046875 "/>
<path style=" stroke:none;fill-rule:nonzero;fill:rgb(78.039216%,81.568627%,86.666667%);fill-opacity:1;" d="M 144.820312 124.199219 C 144.796875 124.226562 144.769531 124.683594 144.964844 124.488281 C 144.988281 124.464844 145.011719 124.007812 144.820312 124.199219 Z M 144.820312 124.199219 "/>
<path style=" stroke:none;fill-rule:nonzero;fill:rgb(81.960784%,78.823529%,74.901961%);fill-opacity:1;" d="M 397.640625 123.910156 C 397.527344 124.945312 397.578125 125.902344 397.640625 126.945312 C 398.097656 125.84375 398.097656 125.007812 397.640625 123.910156 Z M 397.640625 123.910156 "/>
<path style=" stroke:none;fill-rule:nonzero;fill:rgb(79.607843%,81.568627%,84.705882%);fill-opacity:1;" d="M 130.816406 124.34375 L 131.25 124.777344 Z M 130.816406 124.34375 "/>
<path style=" stroke:none;fill-rule:nonzero;fill:rgb(81.960784%,78.039216%,76.862745%);fill-opacity:1;" d="M 185.828125 124.34375 L 186.257812 126.945312 C 186.707031 125.847656 186.734375 125.132812 185.828125 124.34375 Z M 185.828125 124.34375 "/>
<path style=" stroke:none;fill-rule:nonzero;fill:rgb(81.960784%,81.176471%,84.705882%);fill-opacity:1;" d="M 226.109375 124.34375 L 226.542969 124.777344 Z M 226.109375 124.34375 "/>
<path style=" stroke:none;fill-rule:nonzero;fill:rgb(79.215686%,80%,79.607843%);fill-opacity:1;" d="M 234.339844 124.34375 L 234.773438 124.777344 Z M 234.339844 124.34375 "/>
<path style=" stroke:none;fill-rule:nonzero;fill:rgb(85.098039%,87.45098%,90.588235%);fill-opacity:1;" d="M 248.203125 124.34375 L 248.203125 126.945312 C 248.71875 125.902344 248.777344 125.347656 248.203125 124.34375 Z M 248.203125 124.34375 "/>
<path style=" stroke:none;fill-rule:nonzero;fill:rgb(90.588235%,86.27451%,82.352941%);fill-opacity:1;" d="M 272.890625 124.34375 C 272.789062 125.253906 272.808594 126.03125 272.890625 126.945312 C 273.300781 125.957031 273.300781 125.332031 272.890625 124.34375 Z M 272.890625 124.34375 "/>
<path style=" stroke:none;fill-rule:nonzero;fill:rgb(82.745098%,82.745098%,82.745098%);fill-opacity:1;" d="M 202.140625 124.921875 C 201.949219 125.113281 202.40625 125.089844 202.429688 125.066406 C 202.625 124.871094 202.164062 124.898438 202.140625 124.921875 Z M 202.140625 124.921875 "/>
<path style=" stroke:none;fill-rule:nonzero;fill:rgb(83.137255%,82.352941%,83.529412%);fill-opacity:1;" d="M 226.542969 124.777344 L 226.976562 125.210938 Z M 226.542969 124.777344 "/>
<path style=" stroke:none;fill-rule:nonzero;fill:rgb(81.176471%,81.568627%,83.529412%);fill-opacity:1;" d="M 257.730469 124.777344 L 258.164062 125.210938 Z M 257.730469 124.777344 "/>
<path style=" stroke:none;fill-rule:nonzero;fill:rgb(94.117647%,92.156863%,91.764706%);fill-opacity:1;" d="M 368.183594 124.777344 L 368.183594 126.511719 C 368.582031 125.914062 368.792969 125.453125 369.054688 124.777344 Z M 368.183594 124.777344 "/>
<path style=" stroke:none;fill-rule:nonzero;fill:rgb(83.529412%,81.960784%,80%);fill-opacity:1;" d="M 255.566406 125.210938 L 256 125.644531 Z M 255.566406 125.210938 "/>
<path style=" stroke:none;fill-rule:nonzero;fill:rgb(81.568627%,81.960784%,82.745098%);fill-opacity:1;" d="M 265.960938 125.210938 L 266.390625 125.644531 Z M 265.960938 125.210938 "/>
<path style=" stroke:none;fill-rule:nonzero;fill:rgb(82.745098%,82.745098%,81.960784%);fill-opacity:1;" d="M 270.722656 125.210938 L 271.160156 125.644531 Z M 270.722656 125.210938 "/>
<path style=" stroke:none;fill-rule:nonzero;fill:rgb(90.980392%,90.588235%,89.803922%);fill-opacity:1;" d="M 89.953125 125.789062 C 89.757812 125.980469 90.21875 125.957031 90.242188 125.933594 C 90.433594 125.742188 89.976562 125.765625 89.953125 125.789062 Z M 89.953125 125.789062 "/>
<path style=" stroke:none;fill-rule:nonzero;fill:rgb(69.803922%,69.019608%,69.411765%);fill-opacity:1;" d="M 211.8125 125.644531 C 214.398438 126.726562 218.121094 126.078125 220.914062 126.078125 C 218.328125 124.996094 214.605469 125.644531 211.8125 125.644531 Z M 211.8125 125.644531 "/>
<path style=" stroke:none;fill-rule:nonzero;fill:rgb(84.313725%,85.490196%,87.843137%);fill-opacity:1;" d="M 220.914062 125.644531 L 220.914062 126.945312 C 221.210938 126.273438 221.210938 126.316406 220.914062 125.644531 Z M 220.914062 125.644531 "/>
<path style=" stroke:none;fill-rule:nonzero;fill:rgb(81.960784%,80%,79.607843%);fill-opacity:1;" d="M 231.597656 125.789062 C 231.402344 125.980469 231.863281 125.957031 231.882812 125.933594 C 232.078125 125.742188 231.621094 125.765625 231.597656 125.789062 Z M 231.597656 125.789062 "/>
<path style=" stroke:none;fill-rule:nonzero;fill:rgb(80.392157%,81.960784%,83.137255%);fill-opacity:1;" d="M 234.339844 125.644531 L 234.773438 126.078125 Z M 234.339844 125.644531 "/>
<path style=" stroke:none;fill-rule:nonzero;fill:rgb(72.156863%,74.509804%,76.078431%);fill-opacity:1;" d="M 284.152344 125.644531 L 284.585938 126.945312 C 284.882812 126.402344 284.910156 126.273438 285.019531 125.644531 Z M 284.152344 125.644531 "/>
<path style=" stroke:none;fill-rule:nonzero;fill:rgb(72.54902%,72.941176%,74.509804%);fill-opacity:1;" d="M 292.816406 125.644531 L 293.25 126.945312 C 293.546875 126.402344 293.574219 126.273438 293.679688 125.644531 L 292.816406 125.644531 M 341.332031 125.644531 L 341.765625 126.945312 C 342.058594 126.402344 342.085938 126.273438 342.195312 125.644531 Z M 341.332031 125.644531 "/>
<path style=" stroke:none;fill-rule:nonzero;fill:rgb(72.941176%,73.333333%,74.117647%);fill-opacity:1;" d="M 385.511719 125.644531 L 385.945312 126.945312 C 386.242188 126.402344 386.269531 126.273438 386.378906 125.644531 Z M 385.511719 125.644531 "/>
<path style=" stroke:none;fill-rule:nonzero;fill:rgb(73.333333%,73.72549%,74.901961%);fill-opacity:1;" d="M 419.300781 125.644531 L 419.734375 126.945312 C 420.027344 126.402344 420.054688 126.273438 420.164062 125.644531 Z M 419.300781 125.644531 "/>
<path style=" stroke:none;fill-rule:nonzero;fill:rgb(77.647059%,76.862745%,77.254902%);fill-opacity:1;" d="M 89.953125 127.089844 C 89.757812 127.28125 90.21875 127.257812 90.242188 127.230469 C 90.433594 127.039062 89.976562 127.0625 89.953125 127.089844 Z M 89.953125 127.089844 "/>
<path style=" stroke:none;fill-rule:nonzero;fill:rgb(82.352941%,82.352941%,82.352941%);fill-opacity:1;" d="M 269.28125 127.089844 C 269.085938 127.28125 269.546875 127.257812 269.570312 127.230469 C 269.761719 127.039062 269.304688 127.0625 269.28125 127.089844 Z M 269.28125 127.089844 "/>
<path style=" stroke:none;fill-rule:nonzero;fill:rgb(76.470588%,76.862745%,77.647059%);fill-opacity:1;" d="M 281.984375 126.945312 C 282.640625 127.238281 282.988281 127.304688 283.71875 127.378906 C 283.066406 127.082031 282.71875 127.019531 281.984375 126.945312 Z M 281.984375 126.945312 "/>
<path style=" stroke:none;fill-rule:nonzero;fill:rgb(77.254902%,77.254902%,78.039216%);fill-opacity:1;" d="M 290.652344 126.945312 C 291.304688 127.238281 291.652344 127.304688 292.382812 127.378906 C 291.730469 127.082031 291.378906 127.019531 290.652344 126.945312 M 339.164062 126.945312 C 339.816406 127.238281 340.167969 127.304688 340.894531 127.378906 C 340.242188 127.082031 339.894531 127.019531 339.164062 126.945312 Z M 339.164062 126.945312 "/>
<path style=" stroke:none;fill-rule:nonzero;fill:rgb(77.647059%,78.039216%,78.823529%);fill-opacity:1;" d="M 383.34375 126.945312 C 384 127.238281 384.347656 127.304688 385.078125 127.378906 C 384.425781 127.082031 384.078125 127.019531 383.34375 126.945312 Z M 383.34375 126.945312 "/>
<path style=" stroke:none;fill-rule:nonzero;fill:rgb(76.862745%,76.862745%,77.647059%);fill-opacity:1;" d="M 417.132812 126.945312 C 417.785156 127.238281 418.136719 127.304688 418.863281 127.378906 C 418.210938 127.082031 417.863281 127.019531 417.132812 126.945312 Z M 417.132812 126.945312 "/>
</g>
</svg>
