<svg height="480pt" viewBox="-3 0 480 480" width="480pt" xmlns="http://www.w3.org/2000/svg"><path d="m370.488281 88v-80h-240c-17.671875 0-32 14.328125-32 32v64c44.386719-17.832031 94.726563-12.457031 134.347657 14.335938 39.621093 26.792968 63.351562 71.511718 63.332031 119.34375.089843 27.128906-7.570313 53.71875-22.078125 76.640624l75.039062 75.121094c11.457032 12.640625 10.976563 32.046875-1.085937 44.113282-12.0625 12.0625-31.46875 12.539062-44.113281 1.085937l-75.121094-75.039063c-39.066406 24.515626-87.496094 28.886719-130.320313 11.757813v68.640625c0 17.671875 14.328125 32 32 32h304c17.675781 0 32-14.328125 32-32v-336h-80c-8.835937 0-16-7.164062-16-16zm64 336c0 8.835938-7.164062 16-16 16 8.835938 0 16-7.164062 16-16zm-136-272" fill="#e0e0e2"/><path d="m370.488281 88c0 8.835938 7.164063 16 16 16h80l-96-96zm0 0" fill="#c6c5ca"/><path d="m228.808594 359.601562c18.316406-11.488281 33.792968-26.96875 45.28125-45.28125 27.898437-44.375 29.476562-100.40625 4.125-146.285156-25.351563-45.878906-73.628906-74.359375-126.046875-74.355468-79.527344 0-144 64.472656-144 144 0 79.53125 64.472656 144 144 144 27.128906.089843 53.71875-7.570313 76.640625-22.078126zm-130.320313-23.601562c-54.257812-29.582031-74.304687-97.515625-44.796875-151.816406 29.507813-54.296875 97.417969-74.433594 151.753906-45 54.339844 29.4375 74.566407 97.320312 45.203126 151.695312-10.28125 19.242188-26.039063 35-45.277344 45.28125-33.371094 17.988282-73.566406 17.929688-106.882813-.160156zm0 0" fill="#ffcd00"/><path d="m231.371094 316.878906c7.683594-7.660156 14.179687-16.421875 19.277344-26 26.460937-48.941406 13.003906-109.886718-31.605469-143.136718s-106.859375-28.730469-146.203125 10.609374c-39.339844 39.34375-43.855469 101.59375-10.609375 146.203126 33.25 44.609374 94.195312 58.066406 143.140625 31.605468 9.574218-5.097656 18.339844-11.597656 26-19.28125zm-108.882813-28.878906" fill="#c6c5ca"/><path d="m228.808594 359.601562 75.121094 75.039063c12.644531 11.453125 32.050781 10.976563 44.113281-1.085937 12.0625-12.066407 12.542969-31.472657 1.085937-44.113282l-75.039062-75.121094c-11.488282 18.3125-26.964844 33.792969-45.28125 45.28125zm0 0" fill="#00aeef"/><g fill="#231f20"><path d="m474.386719 103.496094c-.042969-.699219-.179688-1.394532-.410157-2.054688-.085937-.257812-.152343-.503906-.261718-.753906-.390625-.871094-.933594-1.664062-1.601563-2.34375l-96-96c-.679687-.671875-1.476562-1.214844-2.351562-1.601562-.238281-.109376-.480469-.175782-.726563-.261719-.679687-.234375-1.382812-.375-2.097656-.417969-.136719.0273438-.28125-.0625-.449219-.0625h-240c-22.078125.0273438-39.972656 17.917969-40 40v58.878906c-54.996093 24.253906-90.488281 78.691406-90.488281 138.800782 0 60.109374 35.492188 114.546874 90.488281 138.800781v63.519531c.027344 22.082031 17.921875 39.972656 40 40h304c22.082031-.027344 39.976563-17.917969 40-40v-336c0-.175781-.085937-.328125-.101562-.503906zm-27.210938-7.496094h-60.6875c-4.417969 0-8-3.582031-8-8v-60.6875zm-431.007812 141.679688c-.046875-36.085938 14.265625-70.703126 39.78125-96.21875 25.515625-25.515626 60.136719-39.828126 96.21875-39.78125 4.546875 0 9.058593.222656 13.511719.65625 61.859374 6.113281 111.644531 53.496093 120.808593 114.976562 1.0625 6.738281 1.621094 13.546875 1.671875 20.367188.058594 25.621093-7.183594 50.726562-20.871094 72.382812-10.855468 17.304688-25.484374 31.929688-42.792968 42.777344-41.910156 26.320312-94.808594 27.796875-138.121094 3.851562-43.3125-23.941406-70.199219-69.523437-70.207031-119.011718zm228.914062 120.175781c1.09375-.847657 2.175781-1.6875 3.246094-2.558594 3.949219-3.179687 7.730469-6.558594 11.335937-10.121094 3.5625-3.605469 6.941407-7.382812 10.121094-11.328125.871094-1.070312 1.710938-2.160156 2.558594-3.253906.96875-1.265625 2.019531-2.464844 2.945312-3.753906l68.199219 68.28125c4.515625 4.472656 7.058594 10.566406 7.058594 16.921875 0 6.359375-2.542969 12.449219-7.058594 16.925781-9.445312 9.128906-24.425781 9.128906-33.871093 0l-68.289063-68.167969c1.289063-.9375 2.496094-1.976562 3.753906-2.945312zm189.40625 106.144531h-304c-13.253906 0-24-10.746094-24-24v-57.273438c.496094.160157 1.015625.265626 1.519531.417969 1.28125.390625 2.578126.703125 3.875 1.0625 2.992188.800781 6.007813 1.601563 9.054688 2.199219 1.496094.3125 2.992188.601562 4.503906.867188 3.046875.535156 6.121094.957031 9.207032 1.3125 1.378906.15625 2.738281.351562 4.121093.46875 4.433594.378906 8.894531.625 13.398438.625 26.445312.019531 52.429687-6.902344 75.355469-20.078126l70.734374 70.664063c9.925782 10.863281 25.019532 15.402344 39.289063 11.808594 14.273437-3.589844 25.421875-14.726563 29.023437-28.996094 3.605469-14.269531-.917968-29.367187-11.777343-39.300781l-70.703125-70.746094c13.175781-22.925781 20.101562-48.910156 20.078125-75.351562 0-5.066407-.242188-10.09375-.734375-15.078126-3.414063-34.953124-18.886719-67.625-43.761719-92.410156-28.449219-28.601562-67.160156-44.628906-107.503906-44.511718-4.503907 0-8.964844.25-13.398438.625-1.382812.121093-2.753906.3125-4.128906.472656-3.078125.34375-6.136719.78125-9.183594 1.3125-1.519531.265625-3.035156.554687-4.542969.871094-3.007812.625-5.992187 1.359374-8.953124 2.175781-1.328126.359375-2.65625.679687-4 1.078125-.496094.152344-1 .257812-1.496094.417968v-52.632812c0-13.253906 10.746094-24 24-24h232.023437v72c0 13.253906 10.746094 24 24 24h72v328c0 13.253906-10.742187 24-24 24zm0 0"/><path d="m330.488281 56c0-4.417969-3.582031-8-8-8h-176c-4.417969 0-8 3.582031-8 8s3.582031 8 8 8h176c4.417969 0 8-3.582031 8-8zm0 0"/><path d="m418.488281 192h-96c-4.417969 0-8 3.582031-8 8s3.582031 8 8 8h96c4.417969 0 8-3.582031 8-8s-3.582031-8-8-8zm0 0"/><path d="m418.488281 240h-96c-4.417969 0-8 3.582031-8 8s3.582031 8 8 8h96c4.417969 0 8-3.582031 8-8s-3.582031-8-8-8zm0 0"/><path d="m426.488281 296c0-4.417969-3.582031-8-8-8h-104c-4.417969 0-8 3.582031-8 8s3.582031 8 8 8h104c4.417969 0 8-3.582031 8-8zm0 0"/><path d="m426.488281 344c0-4.417969-3.582031-8-8-8h-72c-4.417969 0-8 3.582031-8 8s3.582031 8 8 8h72c4.417969 0 8-3.582031 8-8zm0 0"/><path d="m330.488281 104c0-4.417969-3.582031-8-8-8h-64c-4.417969 0-8 3.582031-8 8s3.582031 8 8 8h64c4.417969 0 8-3.582031 8-8zm0 0"/><path d="m426.488281 152c0-4.417969-3.582031-8-8-8h-120c-4.417969 0-8 3.582031-8 8s3.582031 8 8 8h120c4.417969 0 8-3.582031 8-8zm0 0"/><path d="m122.488281 200h56c4.417969 0 8-3.582031 8-8s-3.582031-8-8-8h-56c-4.417969 0-8 3.582031-8 8s3.582031 8 8 8zm0 0"/><path d="m218.488281 240c0-4.417969-3.582031-8-8-8h-120c-4.417969 0-8 3.582031-8 8s3.582031 8 8 8h120c4.417969 0 8-3.582031 8-8zm0 0"/><path d="m178.488281 280h-56c-4.417969 0-8 3.582031-8 8s3.582031 8 8 8h56c4.417969 0 8-3.582031 8-8s-3.582031-8-8-8zm0 0"/><path d="m209.113281 343.199219c19.511719-10.390625 35.691407-26.085938 46.671875-45.269531.632813-1.105469 1.320313-2.175782 1.914063-3.296876.308593-.578124.550781-1.175781.847656-1.753906 1.214844-2.335937 2.398437-4.671875 3.445313-7.0625 1.050781-2.390625 1.875-4.664062 2.730468-7.015625.246094-.679687.558594-1.34375.800782-2.03125 20.34375-59.160156-8.171876-124.027343-65.515626-149.03125-57.347656-25.003906-124.28125-1.753906-153.78125 53.414063-9.285156 17.378906-14.121093 36.789062-14.074218 56.496094-.074219 42.28125 22.132812 81.472656 58.441406 103.136718 36.308594 21.667969 81.34375 22.601563 118.519531 2.460938zm-106.800781-14.253907c-8.707031-4.746093-16.683594-10.722656-23.6875-17.746093-4.859375-4.855469-9.230469-10.171875-13.054688-15.878907-1.890624-2.828124-3.628906-5.730468-5.226562-8.710937-24.078125-45.464844-11.320312-101.703125 30.019531-132.324219 41.339844-30.621094 98.855469-26.433594 135.328125 9.851563 32.300782 32.605469 39.566406 82.464843 17.917969 122.933593v.066407c-9.539063 17.847656-24.164063 32.460937-42.015625 41.992187-30.96875 16.824219-68.363281 16.765625-99.28125-.152344zm0 0"/><path d="m434.488281 384c-4.417969 0-8 3.582031-8 8v32c0 4.417969-3.582031 8-8 8h-32c-4.417969 0-8 3.582031-8 8s3.582031 8 8 8h32c13.257813 0 24-10.746094 24-24v-32c0-4.417969-3.582031-8-8-8zm0 0"/></g></svg>