<?xml version="1.0" standalone="no"?>
<!DOCTYPE svg PUBLIC "-//W3C//DTD SVG 20010904//EN"
 "http://www.w3.org/TR/2001/REC-SVG-20010904/DTD/svg10.dtd">
<svg version="1.0" xmlns="http://www.w3.org/2000/svg"
 width="300.000000pt" height="169.000000pt" viewBox="0 0 300.000000 169.000000"
 preserveAspectRatio="xMidYMid meet">
<metadata>
Created by potrace 1.10, written by Peter Selinger 2001-2011
</metadata>
<g transform="translate(0.000000,169.000000) scale(0.100000,-0.100000)"
fill="#000000" stroke="none">
<path d="M593 990 c0 -41 2 -58 4 -37 2 20 2 54 0 75 -2 20 -4 3 -4 -38z"/>
<path d="M743 990 c-1 -57 1 -68 7 -46 5 16 19 40 32 55 l23 26 -27 -24 -27
-23 -4 43 c-2 27 -4 14 -4 -31z"/>
<path d="M1150 990 c0 -40 3 -70 7 -66 8 8 8 125 -1 133 -3 4 -6 -27 -6 -67z"/>
<path d="M1480 993 c0 -68 0 -68 29 -70 16 -1 35 4 41 12 28 34 -12 107 -42
76 -11 -10 -10 -12 2 -11 31 5 40 -1 40 -24 0 -13 -7 -30 -16 -37 -25 -21 -41
10 -37 71 1 28 -2 50 -7 50 -6 0 -10 -30 -10 -67z"/>
<path d="M499 1040 c-34 -20 -31 -88 5 -112 17 -12 54 -9 62 4 5 8 0 9 -16 5
-37 -9 -60 9 -60 47 0 37 13 52 50 59 l25 4 -25 1 c-14 1 -32 -3 -41 -8z"/>
<path d="M620 1040 c0 -5 5 -10 10 -10 6 0 10 5 10 10 0 6 -4 10 -10 10 -5 0
-10 -4 -10 -10z"/>
<path d="M881 996 c-22 -59 -28 -98 -9 -58 14 28 53 29 68 1 7 -11 13 -19 16
-17 5 5 -35 110 -46 121 -4 5 -17 -16 -29 -47z m32 -24 c-21 -5 -25 2 -17 34
l7 29 13 -30 c10 -25 10 -31 -3 -33z"/>
<path d="M1679 1030 c-10 -26 5 -103 21 -108 12 -4 13 -2 3 9 -15 16 -17 69
-3 69 6 0 10 5 10 11 0 5 -4 8 -9 4 -5 -3 -11 3 -13 12 -3 15 -5 15 -9 3z"/>
<path d="M1727 1027 c-2 -6 -1 -32 2 -57 5 -35 11 -45 26 -48 18 -2 18 -2 3 8
-21 13 -24 66 -6 72 9 3 8 9 -4 21 -12 12 -17 13 -21 4z"/>
<path d="M2017 1028 c-2 -7 -1 -33 2 -58 4 -32 11 -46 24 -48 9 -2 17 2 17 8
0 6 -4 9 -9 6 -5 -3 -11 10 -13 29 -3 24 0 35 9 35 17 0 16 8 -1 26 -18 17
-23 18 -29 2z"/>
<path d="M2289 1030 c-10 -25 5 -103 21 -108 12 -4 13 -2 3 9 -6 8 -13 37 -15
64 -2 28 -6 43 -9 35z"/>
<path d="M2487 1028 c-2 -7 -1 -33 2 -58 4 -32 11 -46 24 -48 9 -2 17 1 17 7
0 6 -6 10 -12 9 -8 -2 -14 10 -16 30 -2 24 1 32 12 32 9 0 16 5 16 10 0 6 -7
10 -16 10 -8 0 -12 5 -9 10 3 6 2 10 -3 10 -6 0 -12 -6 -15 -12z"/>
<path d="M664 995 c-15 -23 -15 -27 0 -50 16 -25 56 -35 56 -14 0 5 -4 8 -9 5
-19 -12 -41 7 -41 34 0 27 22 46 41 34 5 -3 9 0 9 5 0 21 -40 11 -56 -14z"/>
<path d="M988 1013 c-14 -3 -18 -15 -18 -49 0 -30 4 -43 11 -38 6 3 9 17 6 30
-5 28 15 60 31 50 7 -4 12 -25 12 -47 0 -22 4 -38 8 -35 5 3 6 24 3 48 -6 43
-16 51 -53 41z"/>
<path d="M1075 1010 c-4 -6 3 -9 16 -7 12 1 24 -4 26 -10 3 -8 -4 -13 -15 -13
-11 0 -25 -7 -32 -15 -17 -21 4 -45 36 -43 20 2 24 8 24 38 0 37 -14 60 -36
60 -7 0 -16 -4 -19 -10z m45 -49 c0 -5 -7 -14 -15 -21 -12 -10 -19 -10 -28 -1
-9 9 -9 14 3 21 19 12 40 13 40 1z"/>
<path d="M1181 1013 c-1 -7 6 -31 16 -54 15 -39 15 -43 0 -54 -19 -14 -22 -25
-6 -25 11 0 60 102 58 123 0 7 -9 -6 -19 -28 -10 -22 -19 -33 -20 -25 -1 21
-28 78 -29 63z"/>
<path d="M1265 1010 c3 -5 15 -10 26 -10 19 0 19 -2 -5 -33 -15 -19 -26 -37
-26 -40 0 -4 16 -7 35 -7 19 0 35 5 35 11 0 7 -10 9 -25 7 -14 -3 -25 -3 -25
-1 0 2 11 19 25 37 14 18 25 36 25 39 0 4 -16 7 -36 7 -21 0 -33 -4 -29 -10z"/>
<path d="M1356 1004 c-9 -8 -16 -24 -16 -34 0 -36 49 -65 66 -39 4 7 0 9 -14
5 -15 -5 -24 -1 -32 14 -10 18 -8 20 25 20 38 0 40 2 25 31 -13 23 -33 24 -54
3z m44 -9 c11 -13 8 -15 -20 -15 -28 0 -31 2 -20 15 7 8 16 15 20 15 4 0 13
-7 20 -15z"/>
<path d="M1581 984 c-1 -46 13 -64 47 -61 20 1 22 6 20 52 -1 49 -2 49 -5 8
-3 -26 -10 -44 -20 -47 -21 -9 -26 -3 -34 47 l-6 42 -2 -41z"/>
<path d="M1784 995 c-15 -23 -15 -27 0 -50 29 -43 76 -27 76 27 0 17 -7 31
-19 38 -29 15 -39 13 -57 -15z m54 3 c27 -27 2 -75 -32 -62 -19 7 -22 60 -3
67 19 8 22 8 35 -5z"/>
<path d="M1882 965 c1 -40 2 -43 5 -15 9 72 52 77 55 6 l1 -41 4 38 c5 45 -10
67 -43 65 -22 -2 -24 -6 -22 -53z"/>
<path d="M2081 1006 c-31 -37 9 -103 47 -80 36 23 23 94 -18 94 -10 0 -23 -6
-29 -14z m47 -8 c27 -27 2 -75 -32 -62 -26 10 -15 74 14 74 3 0 11 -5 18 -12z"/>
<path d="M2219 1004 c-11 -14 -9 -19 14 -36 30 -22 27 -42 -5 -32 -14 4 -18 2
-14 -5 10 -16 31 -14 47 5 11 14 10 18 -10 34 -26 19 -21 43 6 33 11 -4 14 -3
9 5 -10 17 -31 15 -47 -4z"/>
<path d="M2350 1010 c-12 -8 -10 -10 9 -8 13 2 26 -3 28 -9 3 -8 -4 -13 -15
-13 -11 0 -25 -7 -32 -15 -17 -21 4 -45 36 -43 21 2 24 7 24 44 0 29 -5 44
-16 48 -19 7 -16 8 -34 -4z m40 -54 c0 -14 -29 -31 -38 -22 -2 3 -2 12 1 21 8
19 37 20 37 1z"/>
<path d="M2438 1013 c-14 -3 -18 -15 -18 -51 0 -53 17 -47 22 8 2 21 8 34 16
33 6 -2 12 2 12 7 0 10 -3 11 -32 3z"/>
<path d="M620 965 c0 -25 5 -45 10 -45 6 0 10 20 10 45 0 25 -4 45 -10 45 -5
0 -10 -20 -10 -45z"/>
<path d="M775 940 c10 -11 20 -18 23 -15 7 6 -18 35 -31 35 -5 0 -2 -9 8 -20z"/>
</g>
</svg>
