<svg height="512pt" viewBox="-21 0 512 512" width="512pt" xmlns="http://www.w3.org/2000/svg"><path d="m293.363281 189.347656h60.21875c9.414063 0 13.707031 11.75 6.507813 17.820313l-352.515625 297.257812 98.964843-214.089843h-78.226562c-8.035156 0-12.851562-8.929688-8.4375-15.644532l172.542969-262.5625c1.867187-2.84375 5.039062-4.554687 8.4375-4.554687h221.507812c8.546875 0 13.230469 9.953125 7.78125 16.539062zm0 0" fill="#fff148"/><path d="m422.367188 7.574219h-31.046876l-179.285156 205.429687c-5.699218 6.53125-1.058594 16.738282 7.609375 16.738282h13.019531c9.128907 0 13.574219 11.15625 6.941407 17.433593l-201.128907 190.402344-30.902343 66.847656 352.515625-297.257812c7.199218-6.070313 2.90625-17.820313-6.507813-17.820313h-60.21875l136.78125-165.234375c5.449219-6.585937.765625-16.539062-7.777343-16.539062zm0 0" fill="#ffe600"/><path d="m441.816406 398.390625h-268.625c-11.15625 0-20.195312-9.042969-20.195312-20.195313v-90.890624c0-11.152344 9.042968-20.195313 20.195312-20.195313h268.625c11.152344 0 20.195313 9.042969 20.195313 20.195313v90.890624c0 11.152344-9.042969 20.195313-20.195313 20.195313zm0 0" fill="#8fe7ff"/><path d="m441.816406 267.109375v93.914063c0 11.15625-9.042968 20.199218-20.199218 20.199218h-268.371094c1.464844 9.714844 9.824218 17.167969 19.945312 17.167969h268.625c11.152344 0 20.195313-9.042969 20.195313-20.199219v-90.886718c0-11.152344-9.042969-20.195313-20.195313-20.195313zm0 0" fill="#53daf9"/><path d="m230.753906 374.660156c4.183594 0 7.574219-3.390625 7.574219-7.574218v-45.445313c0-16.984375-13.820313-30.800781-30.800781-30.800781-16.984375 0-30.800782 13.816406-30.800782 30.800781v45.445313c0 4.183593 3.390626 7.574218 7.574219 7.574218 4.183594 0 7.574219-3.390625 7.574219-7.574218v-26.761719h31.304688v26.761719c0 4.183593 3.390624 7.574218 7.574218 7.574218zm-38.878906-49.484375v-3.535156c0-8.628906 7.019531-15.652344 15.652344-15.652344 8.628906 0 15.652344 7.023438 15.652344 15.652344v3.535156zm0 0"/><path d="m439.289062 342.847656v-22.214844c0-16.984374-13.816406-30.804687-30.800781-30.804687s-30.800781 13.820313-30.800781 30.804687v22.214844c0 16.984375 13.816406 30.800782 30.800781 30.800782s30.800781-13.816407 30.800781-30.800782zm-46.453124 0v-22.214844c0-8.632812 7.023437-15.65625 15.652343-15.65625 8.632813 0 15.65625 7.023438 15.65625 15.65625v22.214844c0 8.632813-7.023437 15.652344-15.65625 15.652344-8.628906 0-15.652343-7.019531-15.652343-15.652344zm0 0"/><path d="m253.980469 290.839844c-4.183594 0-7.574219 3.390625-7.574219 7.574218v45.445313c0 16.984375 13.820312 30.800781 30.800781 30.800781 16.984375 0 30.800781-13.816406 30.800781-30.800781v-45.445313c0-4.183593-3.390624-7.574218-7.574218-7.574218s-7.574219 3.390625-7.574219 7.574218v45.445313c0 8.628906-7.019531 15.652344-15.652344 15.652344-8.628906 0-15.652343-7.023438-15.652343-15.652344v-45.445313c0-4.183593-3.390626-7.574218-7.574219-7.574218zm0 0"/><path d="m344.867188 374.660156c4.183593 0 7.574218-3.390625 7.574218-7.574218v-62.109376h15.652344c4.183594 0 7.574219-3.390624 7.574219-7.574218 0-4.179688-3.390625-7.574219-7.574219-7.574219h-46.453125c-4.183594 0-7.574219 3.394531-7.574219 7.574219 0 4.183594 3.390625 7.574218 7.574219 7.574218h15.652344v62.109376c0 4.183593 3.390625 7.574218 7.574219 7.574218zm0 0"/><path d="m441.816406 259.535156h-132.074218l55.242187-46.585937c5.734375-4.839844 7.773437-12.519531 5.195313-19.570313-2.578126-7.050781-9.09375-11.605468-16.597657-11.605468h-44.117187l126.511718-152.828126c4.414063-5.328124 5.324219-12.53125 2.378907-18.792968-2.945313-6.261719-9.074219-10.152344-15.992188-10.152344h-221.511719c-5.96875 0-11.488281 2.980469-14.761718 7.96875l-52.753906 80.273438c-2.296876 3.496093-1.328126 8.191406 2.167968 10.488281s8.191406 1.328125 10.488282-2.167969l52.761718-80.28125c.464844-.710938 1.25-1.132812 2.097656-1.132812h221.515626c1.390624 0 2.027343.90625 2.28125 1.449218.253906.542969.550781 1.613282-.339844 2.6875l-136.777344 165.234375c-1.871094 2.261719-2.269531 5.398438-1.019531 8.054688 1.25 2.652343 3.917969 4.347656 6.851562 4.347656h60.21875c1.457031 0 2.09375.902344 2.371094 1.65625.277344.757813.371094 1.859375-.738281 2.792969l-68.96875 58.164062h-113.054688c-15.3125 0-27.769531 12.457032-27.769531 27.769532v90.886718.082032l-116.667969 98.382812 84.660156-183.140625c1.085938-2.347656.898438-5.082031-.492187-7.257813-1.390625-2.179687-3.796875-3.496093-6.382813-3.496093h-78.222656c-1.3125 0-1.957031-.832031-2.226562-1.324219-.265625-.496094-.605469-1.488281.113281-2.585938l100.542969-153.003906c2.296875-3.496094 1.324218-8.191406-2.171875-10.488281-3.492188-2.292969-8.191407-1.324219-10.488281 2.171875l-100.542969 153c-3.570313 5.4375-3.871094 12.371094-.785157 18.097656 3.089844 5.722656 9.050782 9.28125 15.558594 9.28125h66.378906l-93.996093 203.335938c-1.488281 3.222656-.539063 7.050781 2.28125 9.203125 1.359375 1.035156 2.976562 1.550781 4.59375 1.550781 1.742187 0 3.476562-.597656 4.882812-1.785156l137.878907-116.269532c5.015624 7.253907 13.390624 12.019532 22.855468 12.019532h199.953125c4.183594 0 7.574219-3.390625 7.574219-7.574219s-3.390625-7.574219-7.574219-7.574219h-199.953125c-6.960937 0-12.621094-5.664062-12.621094-12.621094v-90.890624c0-6.960938 5.660157-12.621094 12.621094-12.621094h268.625c6.960938 0 12.621094 5.664062 12.621094 12.621094v90.890624c0 6.960938-5.664062 12.621094-12.621094 12.621094h-33.328125c-4.179687 0-7.574219 3.390625-7.574219 7.574219s3.394532 7.574219 7.574219 7.574219h33.328125c15.3125 0 27.769532-12.457032 27.769532-27.769532v-90.890624c0-15.3125-12.457032-27.769532-27.769532-27.769532zm0 0"/></svg>