<?xml version="1.0" encoding="iso-8859-1"?>
<!-- Generator: Adobe Illustrator 19.0.0, SVG Export Plug-In . SVG Version: 6.00 Build 0)  -->
<svg version="1.1" id="Capa_1" xmlns="http://www.w3.org/2000/svg" xmlns:xlink="http://www.w3.org/1999/xlink" x="0px" y="0px"
	 viewBox="0 0 512.004 512.004" style="enable-background:new 0 0 512.004 512.004;" xml:space="preserve">
<path style="fill:#49B9DE;" d="M352.223,247.982h-16.037c5.034-6.701,8.018-15.03,8.018-24.055c0-22.142-17.95-40.092-40.092-40.092
	c-7.024,0-13.624,1.811-19.366,4.985c-7.807-21.611-28.498-37.059-52.8-37.059c-30.999,0-56.129,25.13-56.129,56.129
	c0,8.739,1.999,17.011,5.561,24.385c-1.826-0.21-3.679-0.33-5.561-0.33c-26.571,0-48.111,21.54-48.111,48.111
	s21.54,48.111,48.111,48.111h176.406c22.142,0,40.092-17.95,40.092-40.092C392.315,265.933,374.365,247.982,352.223,247.982z"/>
<path style="fill:#4296BD;" d="M368.26,304.111H191.854c-26.571,0-48.111-21.54-48.111-48.111c0-4.657,0.675-9.155,1.909-13.414
	c-10.94,8.819-17.946,22.322-17.946,37.469c0,26.571,21.54,48.111,48.111,48.111h176.406c19.151,0,35.156-13.432,39.133-31.386
	C384.826,301.393,376.863,304.111,368.26,304.111z"/>
<path style="fill:#F6D45A;" d="M360.258,75.424l-16.06,27.763c54.41,31.476,88.211,90.031,88.211,152.814
	c0,89.002-66.257,162.808-152.036,174.715l11.024-11.024c6.263-6.262,6.263-16.417,0-22.679c-6.262-6.263-16.417-6.263-22.679,0
	l-40.092,40.092c-6.263,6.262-6.263,16.417,0,22.679l40.092,40.092c3.131,3.132,7.236,4.698,11.339,4.698
	c4.103,0,8.208-1.566,11.339-4.698c6.263-6.262,6.263-16.417,0-22.679l-13.827-13.827c104.86-10.827,186.911-99.694,186.911-207.369
	c0-37.245-9.945-73.804-28.76-105.723C417.466,119.307,391.371,93.424,360.258,75.424z"/>
<path style="fill:#F2A83B;" d="M243.286,12.127c-3.131-3.132-7.236-4.698-11.339-4.698c-4.103,0-8.208,1.566-11.339,4.698
	c-6.263,6.262-6.263,16.417,0,22.679l13.827,13.827C129.574,59.459,47.522,148.327,47.522,256.001
	c0,37.245,9.945,73.804,28.76,105.723c18.255,30.97,44.35,56.854,75.464,74.853l16.06-27.763
	c-54.41-31.476-88.211-90.031-88.211-152.814c0-89.002,66.257-162.808,152.036-174.715L220.606,92.31
	c-6.263,6.262-6.263,16.417,0,22.679c6.262,6.263,16.417,6.263,22.679,0l40.092-40.092c6.263-6.262,6.263-16.417,0-22.679
	L243.286,12.127z"/>
<path d="M302.609,328.167c0-4.152-3.365-7.517-7.517-7.517H175.817c-22.383,0-40.593-18.21-40.593-40.593
	c0-22.384,18.21-40.593,40.593-40.593c3.503,0,7.104,1.106,10.136-1.224c2.79-2.143,3.726-6.064,2.193-9.234
	c-3.193-6.609-4.812-13.714-4.812-21.115c0-26.805,21.807-48.612,48.612-48.612c20.418,0,38.795,12.899,45.731,32.096
	c1.547,4.279,6.716,6.229,10.708,4.024c4.789-2.647,10.228-4.047,15.727-4.047c17.962,0,32.575,14.614,32.575,32.575
	c0,7.113-2.251,13.87-6.511,19.54c-3.653,4.863-0.061,12.033,6.01,12.033h16.037c17.962,0,32.575,14.614,32.575,32.575
	s-14.613,32.575-32.575,32.575h-25.058c-4.153,0-7.517,3.366-7.517,7.517s3.365,7.517,7.517,7.517h25.058
	c26.251,0,47.61-21.358,47.61-47.61s-21.358-47.61-47.61-47.61h-3.443c1.941-5.237,2.942-10.809,2.942-16.538
	c0-26.251-21.358-47.61-47.61-47.61c-5.283,0-10.528,0.884-15.494,2.591c-10.771-21.016-32.643-34.665-56.672-34.665
	c-35.095,0-63.646,28.552-63.646,63.646c0,5.747,0.748,11.361,2.231,16.788c-28.204,2.67-50.342,26.488-50.342,55.378
	c0,30.674,24.954,55.628,55.628,55.628h119.274C299.244,335.684,302.609,332.318,302.609,328.167z"/>
<path d="M222.926,256.502c-4.152,0-7.517,3.366-7.517,7.517s3.366,7.517,7.517,7.517h1.002c4.152,0,7.517-3.366,7.517-7.517
	s-3.366-7.517-7.517-7.517L222.926,256.502L222.926,256.502z"/>
<path d="M254.999,256.502c-4.152,0-7.517,3.366-7.517,7.517s3.366,7.517,7.517,7.517h1.002c4.153,0,7.517-3.366,7.517-7.517
	s-3.365-7.517-7.517-7.517L254.999,256.502L254.999,256.502z"/>
<path d="M287.073,256.502c-4.153,0-7.517,3.366-7.517,7.517s3.365,7.517,7.517,7.517h1.002c4.153,0,7.517-3.366,7.517-7.517
	s-3.365-7.517-7.517-7.517L287.073,256.502L287.073,256.502z"/>
<path d="M442.197,146.46c-18.91-32.082-45.943-58.896-78.175-77.542c-3.593-2.081-8.192-0.85-10.272,2.742
	c-2.079,3.593-0.851,8.193,2.742,10.272c29.997,17.353,55.153,42.306,72.752,72.164c18.134,30.764,27.719,66.003,27.719,101.906
	c0,103.352-77.454,189.287-180.167,199.891c-6.164,0.636-8.936,8.4-4.543,12.793l13.828,13.827
	c3.288,3.287,3.278,8.761-0.001,12.049s-8.767,3.28-12.048,0l-40.092-40.092c-3.284-3.283-3.284-8.764,0-12.048l40.092-40.092
	c3.288-3.288,8.76-3.278,12.049,0.001c3.289,3.279,3.28,8.768-0.001,12.048l-11.024,11.024c-2.296,2.296-2.85,5.916-1.347,8.793
	c1.452,2.782,4.586,4.4,7.696,3.967c43.534-6.043,83.593-27.683,112.799-60.931c29.483-33.566,45.72-76.619,45.72-121.229
	c0-65.457-35.238-126.505-91.964-159.321c-3.594-2.082-8.192-0.851-10.272,2.742c-2.079,3.593-0.851,8.192,2.742,10.272
	c52.096,30.136,84.458,86.198,84.458,146.307c0,76.293-51.82,142.707-123.675,162.726c4.399-8.947,2.533-19.996-4.503-27.03
	c-4.448-4.449-10.364-6.9-16.655-6.9c-6.292,0-12.207,2.45-16.655,6.899l-40.092,40.092c-9.08,9.08-9.08,24.231,0,33.311
	l40.092,40.092c9.079,9.08,24.231,9.081,33.31,0.001c9.08-9.078,9.081-24.232,0.001-33.311l-3.156-3.156
	c46.925-8.266,89.922-31.943,122.358-67.669c36.167-39.835,56.085-91.349,56.085-145.056
	C471.999,217.413,461.694,179.535,442.197,146.46z"/>
<path d="M288.694,46.903L248.602,6.81c-9.079-9.08-24.231-9.081-33.31-0.001c-9.08,9.078-9.081,24.232,0,33.311l3.156,3.156
	c-46.925,8.267-89.922,31.944-122.358,67.669C59.924,150.78,40.006,202.294,40.006,256c0,38.588,10.306,76.466,29.802,109.541
	c18.911,32.082,45.943,58.896,78.176,77.542c3.832,2.219,8.874,0.553,10.651-3.49c1.52-3.46,0.146-7.633-3.122-9.523
	c-29.996-17.353-55.153-42.306-72.751-72.164C64.627,327.142,55.041,291.903,55.041,256c0-103.351,77.454-189.286,180.167-199.891
	c6.164-0.636,8.937-8.401,4.543-12.793l-13.83-13.826c-3.288-3.287-3.277-8.76,0.001-12.049c3.279-3.288,8.768-3.279,12.048,0
	l40.092,40.092c3.322,3.322,3.322,8.727,0,12.049l-40.092,40.092c-3.287,3.288-8.76,3.277-12.049-0.001
	c-3.289-3.279-3.279-8.768,0-12.048l11.025-11.023c2.243-2.243,2.822-5.822,1.412-8.662c-1.41-2.84-4.62-4.539-7.762-4.099
	c-43.534,6.043-83.593,27.683-112.799,60.931c-29.484,33.566-45.72,76.619-45.72,121.229c0,65.457,35.238,126.505,91.964,159.321
	c3.592,2.08,8.192,0.852,10.272-2.742c2.079-3.593,0.851-8.192-2.743-10.272c-52.096-30.136-84.457-86.198-84.457-146.307
	c0-76.293,51.82-142.707,123.675-162.726c-1.568,3.189-2.396,6.718-2.396,10.376c0,6.291,2.45,12.207,6.899,16.654
	c9.078,9.08,24.232,9.081,33.311,0l40.092-40.092C297.877,71.029,297.877,56.087,288.694,46.903z"/>
<g>
</g>
<g>
</g>
<g>
</g>
<g>
</g>
<g>
</g>
<g>
</g>
<g>
</g>
<g>
</g>
<g>
</g>
<g>
</g>
<g>
</g>
<g>
</g>
<g>
</g>
<g>
</g>
<g>
</g>
</svg>
