<svg viewBox="0 0 512 512" xmlns="http://www.w3.org/2000/svg"><path d="m512 256c0 141.386719-114.613281 256-256 256s-256-114.613281-256-256 114.613281-256 256-256 256 114.613281 256 256zm0 0" fill="#00f"/><path d="m306.105469 507.085938c46.566406-9.242188 88.585937-31.105469 122.339843-61.886719l-205.0625-205.0625-102.929687-19.472657-28.550781 50.5625 82.609375 82.609376-14.164063 7.488281zm0 0" fill="#161eb7"/><path d="m356.894531 153.863281-95.503906 5.3125 146.625 146.625-36.429687 48.625 73.8125 73.808594c31.054687-34.132813 52.996093-76.699219 62.015624-123.851563zm0 0" fill="#161eb7"/><path d="m422.097656 240.773438-26.769531 26.25.167969-17.332032c.355468-36.054687-13.355469-70.085937-38.601563-95.828125-25.246093-25.742187-59.003906-40.113281-95.054687-40.464843l-.449219 45.777343c23.828125.230469 46.136719 9.726563 62.820313 26.742188 16.683593 17.011719 25.746093 39.503906 25.511718 63.328125l-.167968 17.335937-26.253907-26.769531-32.683593 32.050781 80.96875 82.5625 82.566406-80.96875zm0 0" fill="#ffdf00"/><path d="m422.097656 240.773438-26.769531 26.25.167969-17.332032c.304687-30.902344-9.730469-60.308594-28.5-84.292968l-35.851563 28.5c12.226563 15.785156 18.777344 35.074218 18.578125 55.347656l-.167968 17.332031-26.253907-26.769531-32.683593 32.054687 80.972656 82.5625 82.5625-80.972656zm0 0" fill="#fa0"/><path d="m189.789062 326.085938c-16.683593-17.015626-25.746093-39.503907-25.511718-63.332032l.167968-17.335937 26.253907 26.773437 32.683593-32.054687-80.96875-82.5625-82.566406 80.972656 32.054688 32.679687 26.769531-26.25-.171875 17.332032c-.351562 36.054687 13.359375 70.085937 38.605469 95.828125 25.246093 25.742187 59.003906 40.113281 95.054687 40.464843l.449219-45.777343c-23.828125-.230469-46.136719-9.726563-62.820313-26.738281zm0 0" fill="#ffdf00"/><path d="m179.929688 314.09375-35.917969 28.550781c3.9375 5.433594 8.308593 10.613281 13.09375 15.492188 25.246093 25.742187 59.003906 40.113281 95.054687 40.464843l.449219-45.777343c-23.828125-.230469-46.136719-9.730469-62.820313-26.742188-3.671874-3.738281-6.945312-7.761719-9.859374-11.988281zm0 0" fill="#fa0"/></svg>